<?xml version="1.0" encoding="UTF-8" standalone="no"?>
<svg
   xmlns:dc="http://purl.org/dc/elements/1.1/"
   xmlns:cc="http://creativecommons.org/ns#"
   xmlns:rdf="http://www.w3.org/1999/02/22-rdf-syntax-ns#"
   xmlns:svg="http://www.w3.org/2000/svg"
   xmlns="http://www.w3.org/2000/svg"
   xmlns:sodipodi="http://sodipodi.sourceforge.net/DTD/sodipodi-0.dtd"
   xmlns:inkscape="http://www.inkscape.org/namespaces/inkscape"
   width="1665.5206"
   height="1319.0249"
   viewBox="0 0 440.669 348.99202"
   version="1.1"
   id="svg8"
   inkscape:version="1.0 (4035a4fb49, 2020-05-01)"
   sodipodi:docname="make + bio cogs maroon filled white.svg">
  <defs
     id="defs2" />
  <sodipodi:namedview
     id="base"
     pagecolor="#ffffff"
     bordercolor="#666666"
     borderopacity="1.0"
     inkscape:pageopacity="0.0"
     inkscape:pageshadow="2"
     inkscape:zoom="0.35"
     inkscape:cx="855.78018"
     inkscape:cy="1268.2599"
     inkscape:document-units="mm"
     inkscape:current-layer="g1569"
     inkscape:document-rotation="0"
     showgrid="false"
     units="px"
     inkscape:snap-global="false"
     inkscape:window-width="958"
     inkscape:window-height="991"
     inkscape:window-x="0"
     inkscape:window-y="0"
     inkscape:window-maximized="0"
     fit-margin-top="0"
     fit-margin-left="0"
     fit-margin-right="0"
     fit-margin-bottom="0" />
  <metadata
     id="metadata5">
    <rdf:RDF>
      <cc:Work
         rdf:about="">
        <dc:format>image/svg+xml</dc:format>
        <dc:type
           rdf:resource="http://purl.org/dc/dcmitype/StillImage" />
        <dc:title></dc:title>
      </cc:Work>
    </rdf:RDF>
  </metadata>
  <g
     inkscape:label="Layer 1"
     inkscape:groupmode="layer"
     id="layer1"
     transform="translate(96.628824,306.89823)">
    <g
       id="g1569">
      <text
         transform="matrix(0.97621166,-0.21682383,0.21682426,0.97620974,0,0)"
         id="text3353-8-8-3"
         y="-90.132523"
         x="-40.039093"
         style="font-style:normal;font-weight:normal;font-size:3.38666px;line-height:0%;font-family:sans-serif;letter-spacing:0px;word-spacing:0px;fill:#ffffff;fill-opacity:1;stroke:none;stroke-width:0.282222px;stroke-linecap:butt;stroke-linejoin:miter;stroke-opacity:1"
         xml:space="preserve"><tspan
           style="font-style:normal;font-variant:normal;font-weight:bold;font-stretch:normal;font-size:84.8672px;line-height:0;font-family:'Proxima Nova';-inkscape-font-specification:'Proxima Nova';fill:#ffffff;stroke-width:0.282222px"
           y="-90.132523"
           x="-40.039093"
           id="tspan3355-3-7-1"
           sodipodi:role="line">OHI/O</tspan></text>
      <path
         sodipodi:nodetypes="cscccsscssscssccsccscsscsscscscsscsccccsscssssscsccccsccccscsscccssscsccscsc"
         inkscape:connector-curvature="0"
         id="path3351-5"
         d="m 2.7625433,-32.20862 c 0,-0.04043 -0.3410116,-6.999969 -0.7465251,-15.464069 -0.5391399,-11.257338 -0.8446621,-15.465858 -1.13845517,-15.674569 -0.222199,-0.157389 -1.53687078,-0.778 -2.92468603,-1.380003 -4.9793974,-2.160563 -10.331906,-5.110548 -15.854765,-8.73814 -1.851034,-1.215917 -3.500545,-2.226761 -3.665651,-2.246389 -0.163565,-0.01851 -6.214144,3.221094 -13.442373,7.201644 -7.227922,3.98055 -13.458421,7.384002 -13.845108,7.563209 -0.678628,0.314257 -1.250172,-0.368569 -16.196702,-19.349811 -8.521297,-10.821493 -15.476714,-19.816402 -15.456055,-19.988602 0.03088,-0.1722 4.762778,-5.55556 10.538676,-11.96306 l 10.501649,-11.64999 -1.916456,-5.43696 c -2.145141,-6.08516 -3.257378,-10.10966 -4.268354,-15.44512 -0.377133,-1.99055 -0.70674,-3.6599 -0.732648,-3.70971 -0.03087,-0.0623 -29.088816,-8.66831 -30.243019,-8.95747 -0.04013,-0.009 1.274543,-11.3303 2.919445,-25.15655 l 2.990706,-25.13865 0.671237,-0.066 c 0.36909,-0.0364 7.449503,-0.25862 15.73379,-0.49375 8.284598,-0.23516 15.091261,-0.45664 15.125825,-0.49216 0.03395,-0.0358 0.73634,-1.57643 1.559401,-3.42419 2.074774,-4.65875 5.501564,-10.94772 8.48303,-15.56804 l 2.514544,-3.89667 -7.100775,-12.71558 c -3.905441,-6.99355 -7.340255,-13.15836 -7.633432,-13.69957 l -0.532661,-0.98402 19.881184,-15.39389 c 10.934927,-8.46663 20.041042,-15.43587 20.236082,-15.48722 0.194423,-0.0512 5.47595,4.52262 11.735456,10.16434 l 11.3811767,10.25773 4.6464122,-1.66605 c 7.1850241,-2.57632 13.5843311,-4.30508 18.6862471,-5.04808 0.977981,-0.14258 1.279185,-0.33577 1.485026,-0.95326 0.141961,-0.42601 2.061505,-6.99405 4.265277,-14.59562 2.203776,-7.60157 4.109434,-14.10733 4.23473,-14.4572 l 0.228368,-0.6361 25.107161,2.98705 25.107158,2.98704 0.07407,0.67224 c 0.04012,0.36974 0.380825,7.36435 0.754856,15.54363 l 0.679557,14.87135 3.497154,1.64165 c 4.946069,2.32178 9.770547,5.02675 14.443494,8.09827 2.21612,1.45666 4.15572,2.6635 4.30972,2.68183 0.1543,0.0185 6.34036,-3.18375 13.74758,-7.11576 7.40723,-3.93197 13.66488,-7.13412 13.90591,-7.11585 0.38483,0.0278 31.00806,39.15547 31.17594,39.8321 0.037,0.14473 -4.67758,5.40329 -10.47417,11.68559 l -10.5396,11.42232 1.25233,3.19092 c 1.81616,4.62871 3.64621,11.0169 4.74054,16.54697 0.52556,2.65678 0.97273,4.86632 0.9931,4.91011 0.0309,0.0438 6.75668,2.04712 14.96844,4.45182 l 14.93079,4.37221 -3.00584,25.26687 -3.00616,25.26691 -3.25582,0.10832 c -1.79055,0.0596 -8.31361,0.2509 -14.49565,0.42501 -6.18205,0.17406 -11.58301,0.34404 -12.00241,0.37743 -0.68017,0.0543 -0.90453,0.38447 -2.08126,3.0617 -1.96521,4.47142 -4.68529,9.39338 -8.10344,14.66222 l -3.05275,4.70593 7.62294,13.943737 7.62294,13.943773 -19.76854,15.566588 c -10.8729,8.56165 -19.8639,15.555322 -19.97994,15.541496 -0.11418,-0.01233 -5.44416,-4.769626 -11.840071,-10.568402 l -11.62899,-10.543284 -4.785901,1.635036 c -6.077122,2.076099 -9.092226,2.927209 -15.111329,4.265641 l -4.833427,1.074789 -4.333789,14.873052 c -2.383385,8.180149 -4.434706,15.000232 -4.55815,15.155708 C 52.805277,-26.278409 44.8799,-27.123933 27.75274,-29.16158 14.012868,-30.796246 2.7668641,-32.167977 2.7616176,-32.208344 Z"
         style="fill:#800000;fill-opacity:1;stroke:none;stroke-width:0.282222;stroke-miterlimit:4;stroke-dasharray:none;stroke-opacity:1" />
      <g
         id="text3353-8-2"
         style="font-style:normal;font-weight:normal;font-size:295.241px;line-height:0%;font-family:sans-serif;letter-spacing:0px;word-spacing:0px;fill:#ffffff;fill-opacity:1;stroke:none;stroke-width:1px;stroke-linecap:butt;stroke-linejoin:miter;stroke-opacity:1"
         transform="matrix(0.27550811,-0.06119239,0.06119251,0.27550757,220.17611,-141.93847)">
        <path
           id="path4166"
           style="font-style:normal;font-variant:normal;font-weight:bold;font-stretch:normal;font-size:280.961px;font-family:'Proxima Nova';-inkscape-font-specification:'Proxima Nova';fill:#ffffff"
           d="m -762.45077,-219.69603 v -187.4008 h -56.19215 l -45.51564,117.16062 -45.51563,-117.16062 h -55.91119 v 187.4008 h 39.89643 v -135.14211 l 52.82061,135.14211 h 17.41957 l 52.82061,-135.14211 v 135.14211 z"
           inkscape:connector-curvature="0" />
        <path
           id="path4168"
           style="font-style:normal;font-variant:normal;font-weight:bold;font-stretch:normal;font-size:280.961px;font-family:'Proxima Nova';-inkscape-font-specification:'Proxima Nova';fill:#ffffff"
           d="m -550.47469,-219.69603 -72.2069,-187.4008 h -50.01101 l -72.20691,187.4008 h 45.23468 l 11.80035,-31.74856 h 80.35477 l 11.80035,31.74856 z m -67.99249,-66.86865 h -58.43983 l 29.21991,-80.63573 z"
           inkscape:connector-curvature="0" />
        <path
           id="path4170"
           style="font-style:normal;font-variant:normal;font-weight:bold;font-stretch:normal;font-size:280.961px;font-family:'Proxima Nova';-inkscape-font-specification:'Proxima Nova';fill:#ffffff"
           d="m -372.7407,-219.69603 -79.51188,-99.4601 74.45459,-87.9407 h -49.16813 l -66.30673,83.44533 v -83.44533 h -39.89642 v 187.4008 h 39.89642 v -57.59695 l 14.60996,-17.70052 56.75407,75.29747 z"
           inkscape:connector-curvature="0" />
        <path
           id="path4172"
           style="font-style:normal;font-variant:normal;font-weight:bold;font-stretch:normal;font-size:280.961px;font-family:'Proxima Nova';-inkscape-font-specification:'Proxima Nova';fill:#ffffff"
           d="m -221.66283,-219.69603 v -35.12009 h -92.71704 v -42.70603 h 90.75031 v -35.12009 h -90.75031 v -39.3345 h 92.71704 v -35.12009 h -132.61346 v 187.4008 z"
           inkscape:connector-curvature="0" />
      </g>
      <g
         id="text3353-8-2-1"
         style="font-style:normal;font-weight:normal;font-size:295.241px;line-height:0%;font-family:sans-serif;letter-spacing:0px;word-spacing:0px;fill:#ffffff;fill-opacity:1;stroke:none;stroke-width:1px;stroke-linecap:butt;stroke-linejoin:miter;stroke-opacity:1"
         transform="matrix(0.27550811,-0.06119239,0.06119251,0.27550757,220.17611,-141.93847)">
        <path
           id="path4155"
           style="font-style:normal;font-variant:normal;font-weight:bold;font-stretch:normal;font-size:280.961px;font-family:'Proxima Nova';-inkscape-font-specification:'Proxima Nova';fill:#ffffff"
           d="m -877.03877,-9.2009944 c 56.4731,0 97.77433,-40.4583446 97.77433,-96.9314456 0,-56.47311 -41.30123,-96.93145 -97.77433,-96.93145 -56.75407,0 -98.05529,40.45834 -98.05529,96.93145 0,56.473101 41.30122,96.9314456 98.05529,96.9314456 z m 0,-35.4010516 c -34.83913,0 -57.03503,-26.691268 -57.03503,-61.530394 0,-35.12009 22.1959,-61.5304 57.03503,-61.5304 34.55817,0 56.75406,26.41031 56.75406,61.5304 0,34.839126 -22.19589,61.530394 -56.75406,61.530394 z"
           inkscape:connector-curvature="0" />
        <path
           id="path4157"
           style="font-style:normal;font-variant:normal;font-weight:bold;font-stretch:normal;font-size:280.961px;font-family:'Proxima Nova';-inkscape-font-specification:'Proxima Nova';fill:#ffffff"
           d="M -582.41634,-12.572523 V -199.97333 h -40.17738 v 73.61171 h -88.50263 v -73.61171 h -39.89642 v 187.400807 h 39.89642 v -78.949964 h 88.50263 v 78.949964 z"
           inkscape:connector-curvature="0" />
        <path
           id="path4159"
           style="font-style:normal;font-variant:normal;font-weight:bold;font-stretch:normal;font-size:280.961px;font-family:'Proxima Nova';-inkscape-font-specification:'Proxima Nova';fill:#ffffff"
           d="M -505.86333,-12.572523 V -199.97333 h -39.89642 v 187.400807 z"
           inkscape:connector-curvature="0" />
        <path
           id="path4161"
           style="font-style:normal;font-variant:normal;font-weight:bold;font-stretch:normal;font-size:280.961px;font-family:'Proxima Nova';-inkscape-font-specification:'Proxima Nova';fill:#ffffff"
           d="m -461.62958,-6.9533086 66.58769,-198.6392314 h -25.84838 l -66.5877,198.6392314 z"
           inkscape:connector-curvature="0" />
        <path
           id="path4163"
           style="font-style:normal;font-variant:normal;font-weight:bold;font-stretch:normal;font-size:280.961px;font-family:'Proxima Nova';-inkscape-font-specification:'Proxima Nova';fill:#ffffff"
           d="m -287.67976,-9.2009944 c 56.4731,0 97.77433,-40.4583446 97.77433,-96.9314456 0,-56.47311 -41.30123,-96.93145 -97.77433,-96.93145 -56.75407,0 -98.0553,40.45834 -98.0553,96.93145 0,56.473101 41.30123,96.9314456 98.0553,96.9314456 z m 0,-35.4010516 c -34.83913,0 -57.03503,-26.691268 -57.03503,-61.530394 0,-35.12009 22.1959,-61.5304 57.03503,-61.5304 34.55817,0 56.75406,26.41031 56.75406,61.5304 0,34.839126 -22.19589,61.530394 -56.75406,61.530394 z"
           inkscape:connector-curvature="0" />
      </g>
      <rect
         transform="matrix(-0.06565572,0.99784234,-0.99975323,-0.02221447,0,0)"
         y="-163.35477"
         x="-67.814278"
         height="1.1936327"
         width="2.2402096"
         id="rect1453-5-3-8-0"
         style="fill:#ffffff;fill-opacity:1;stroke:none;stroke-width:1.49023;stroke-miterlimit:4;stroke-dasharray:none;stroke-opacity:1;paint-order:markers fill stroke"
         inkscape:transform-center-x="-0.13337614"
         inkscape:transform-center-y="-0.74298601" />
      <path
         d="m 318.17376,-24.852955 c -0.36779,1.313266 -0.8504,2.592366 -1.33563,3.866058 -0.19585,0.524117 -0.39454,1.047471 -0.5761,1.576718 -0.11159,0.325481 -0.19755,0.624136 -0.32736,0.94426 -0.24936,0.556512 -0.54655,1.086499 -0.78043,1.650395 0,0 1.24528,-0.574241 1.24528,-0.574241 v 0 c 0.23115,-0.562831 0.52947,-1.09123 0.77297,-1.648362 0.0455,-0.112213 0.0951,-0.222377 0.13436,-0.336754 0.0677,-0.199035 0.11045,-0.405926 0.17364,-0.606589 0.1634,-0.521612 0.34843,-1.036068 0.53118,-1.551139 0.48051,-1.303428 0.95214,-2.610231 1.43372,-3.913237 0,0 -1.27135,0.592891 -1.27135,0.592891 z"
         id="path1420"
         style="fill:#ffffff;fill-opacity:1;stroke:#faf8f8;stroke-width:11.3864;stroke-miterlimit:4;stroke-dasharray:none;stroke-opacity:1;paint-order:markers fill stroke" />
      <path
         d="m 162.00713,-96.807431 c 1.77931,0.596057 3.47697,1.395464 5.19006,2.153282 1.3968,0.617896 2.80011,1.220955 4.19883,1.834502 5.37939,2.176704 10.67867,4.540606 15.99337,6.868955 3.69048,1.601934 7.45247,3.031984 11.15826,4.597179 1.45214,0.613348 2.39965,1.051782 3.80015,1.686052 1.31335,0.56939 2.58818,1.237192 3.92893,1.743336 0.63504,0.239741 1.52334,0.526395 2.15823,0.736987 2.44122,0.730735 4.82401,1.625208 7.16497,2.62788 1.40955,0.496903 2.6903,1.300535 4.07868,1.843041 0.63489,0.248054 1.70381,0.559302 2.33091,0.750861 4.32371,1.198587 8.65035,2.388708 12.95402,3.657954 5.30698,1.485001 10.62171,2.944559 15.8969,4.539536 2.02749,0.657606 4.06324,1.297284 6.0531,2.064183 0.9504,0.366301 1.87861,0.786791 2.80966,1.198741 2.02264,0.913425 4.04822,1.818515 6.06922,2.736398 1.69263,0.815057 3.43407,1.524557 5.13785,2.314491 0.59511,0.275893 1.18139,0.570449 1.77208,0.855667 0.57318,0.295023 1.15014,0.583025 1.71963,0.88517 1.19609,0.634583 1.66208,0.90669 2.7804,1.580032 0.83269,0.501345 1.63697,1.031429 2.48856,1.499809 0.25449,0.123828 0.50784,0.250502 0.76369,0.371255 0.6936,0.327189 0.89315,0.388334 1.58374,0.755216 0.97525,0.518083 1.87438,1.131009 2.77499,1.76673 1.32362,0.919232 2.5447,1.975369 3.83814,2.93442 0.58544,0.43405 1.18937,0.842476 1.78238,1.266085 0.62187,0.450903 1.23207,0.916101 1.85781,1.361572 0,0 2.30632,-1.471252 2.30632,-1.471252 v 0 c -0.6443,-0.432342 -1.27613,-0.881696 -1.91434,-1.323051 -0.271,-0.187307 -1.55442,-1.072585 -1.7932,-1.246188 -1.30539,-0.948957 -2.53069,-2.003556 -3.84486,-2.940853 -0.89673,-0.647091 -1.79131,-1.285579 -2.75876,-1.825222 -0.74524,-0.415719 -0.82358,-0.417199 -1.57674,-0.766552 -0.25391,-0.117621 -0.50556,-0.240196 -0.75799,-0.360266 -2.39913,-1.261611 -4.70323,-2.704949 -7.15803,-3.864071 -2.23886,-1.142127 -4.46808,-2.312635 -6.80026,-3.255596 -2.02487,-0.883508 -4.02042,-1.832453 -6.01685,-2.77653 -2.98928,-1.224314 -6.08834,-2.139607 -9.17369,-3.086485 -1.7974,-0.541881 -3.58771,-1.107615 -5.39063,-1.630782 -3.4879,-1.012088 -7.01984,-1.871747 -10.49915,-2.915125 -4.24719,-1.263461 -8.49151,-2.53672 -12.73885,-3.799367 -0.51034,-0.166356 -1.72319,-0.552413 -2.26319,-0.761513 -1.40099,-0.542564 -2.72073,-1.285426 -4.12984,-1.810591 -0.95725,-0.422265 -1.3712,-0.617822 -2.33686,-0.993819 -1.586,-0.617503 -3.21339,-1.116553 -4.82412,-1.663244 -2.08843,-0.721638 -4.12964,-1.561609 -6.17504,-2.396342 -5.03708,-2.06054 -10.13052,-3.982962 -15.11071,-6.1813 -2.72706,-1.165054 -5.42856,-2.381842 -8.14285,-3.575755 -3.8951,-1.713333 -1.42422,-0.595903 -5.30545,-2.261635 -0.8247,-0.353947 -1.64377,-0.720869 -2.46565,-1.08129 -3.04911,-1.379659 -6.06928,-2.821141 -9.12162,-4.192745 0,0 -2.2922,1.550251 -2.2922,1.550251 z"
         id="path1370"
         style="fill:#ffffff;fill-opacity:1;stroke:#faf8f8;stroke-width:11.3864;stroke-miterlimit:4;stroke-dasharray:none;stroke-opacity:1;paint-order:markers fill stroke" />
      <g
         style="fill:#ffffff;fill-opacity:1"
         id="g1412"
         transform="matrix(5.6932212,0,0,5.6932149,-296.452,-257.89262)">
        <path
           style="fill:#ffffff;fill-opacity:1;stroke:#faf8f8;stroke-width:2;stroke-miterlimit:4;stroke-dasharray:none;stroke-opacity:1;paint-order:markers fill stroke"
           id="path1368"
           d="m 81.823866,26.837812 c 0.844825,0.248777 1.669492,0.561829 2.489001,0.883015 0.707716,0.266247 1.426382,0.501975 2.131574,0.775118 0.302516,0.117173 0.468976,0.188529 0.759179,0.309591 0.323845,0.142116 0.173178,0.07503 0.452268,0.200637 0,0 0.38494,-0.256921 0.38494,-0.256921 v 0 c -0.294412,-0.115465 -0.135856,-0.05342 -0.475716,-0.186032 -0.170568,-0.0644 -0.633497,-0.239548 -0.7836,-0.294481 -0.709991,-0.259831 -1.425763,-0.503915 -2.132087,-0.77379 -0.808339,-0.31442 -1.615924,-0.630991 -2.432145,-0.924573 0,0 -0.393414,0.267436 -0.393414,0.267436 z" />
        <path
           style="fill:#ffffff;fill-opacity:1;stroke:#faf8f8;stroke-width:2;stroke-miterlimit:4;stroke-dasharray:none;stroke-opacity:1;paint-order:markers fill stroke"
           id="path1374"
           d="m 88.661455,28.878499 c 0.287186,0.130646 0.558561,0.291788 0.836477,0.440148 0.301525,0.160967 0.606057,0.316233 0.908653,0.475178 0.743329,0.356376 1.483106,0.72062 2.232041,1.06521 0.307663,0.14156 0.651436,0.291521 0.961589,0.428152 0.90642,0.379727 1.805545,0.77652 2.712632,1.154655 0.521026,0.215598 1.04167,0.433006 1.572861,0.622622 0.692076,0.239726 1.363959,0.530844 2.027093,0.840574 0.808039,0.364482 1.603179,0.75647 2.398969,1.146704 0.53828,0.264845 1.10226,0.470712 1.6537,0.705554 0.47777,0.192166 0.95674,0.380291 1.42853,0.586964 0.27396,0.122077 0.53592,0.268867 0.79876,0.412825 0.15856,0.09037 0.31961,0.175074 0.48519,0.251917 0.0743,0.03424 0.1478,0.07811 0.19093,0.149731 0.003,0.0076 0.006,0.01527 0.009,0.02289 0,0 0.43304,-0.241969 0.43304,-0.241969 v 0 c -0.004,-0.01 -0.009,-0.01998 -0.0128,-0.02997 -0.0497,-0.08014 -0.12814,-0.133567 -0.21408,-0.170135 -0.081,-0.03481 -0.16243,-0.07045 -0.24079,-0.111041 -0.11988,-0.0621 -0.0502,-0.03135 -0.1652,-0.09538 -0.0261,-0.01453 -0.0531,-0.02733 -0.0797,-0.04099 -0.27044,-0.142063 -0.54471,-0.278463 -0.82474,-0.400478 -0.47324,-0.200735 -0.94826,-0.397439 -1.42466,-0.590482 -0.5615,-0.22289 -1.13025,-0.429614 -1.67731,-0.686755 -0.2515,-0.118554 -0.50435,-0.234254 -0.75505,-0.354481 -0.54947,-0.263498 -1.09143,-0.542716 -1.64893,-0.789408 -0.655619,-0.308914 -1.320262,-0.598204 -1.992332,-0.869529 -0.542666,-0.181623 -1.082432,-0.371123 -1.609609,-0.594757 -0.912257,-0.372462 -1.81919,-0.757629 -2.725108,-1.145246 -1.077447,-0.469882 -2.155182,-0.942068 -3.1976,-1.486607 -0.161386,-0.09099 -0.323678,-0.180393 -0.484159,-0.27297 -0.397931,-0.229561 -0.789424,-0.470427 -1.194329,-0.687875 0,0 -0.402691,0.264957 -0.402691,0.264957 z" />
        <path
           style="fill:#ffffff;fill-opacity:1;stroke:#faf8f8;stroke-width:2;stroke-miterlimit:4;stroke-dasharray:none;stroke-opacity:1;paint-order:markers fill stroke"
           id="path1378"
           d="m 82.031794,31.084715 c 0.02148,0.162134 0.0177,0.326306 0.03407,0.488834 0.0172,0.170889 0.04002,0.341178 0.05791,0.511995 0.02812,0.198618 0.02447,0.399828 0.0447,0.599038 0.01175,0.115641 0.0287,0.230717 0.04564,0.345713 0.01823,0.123811 0.03296,0.248419 0.05989,0.370633 0.06576,0.298437 0.178591,0.626211 0.271024,0.915257 0.196138,0.545555 0.402658,1.087155 0.595352,1.633953 0,0 0.38572,-0.214299 0.38572,-0.214299 v 0 c -0.213537,-0.536456 -0.433644,-1.070785 -0.61998,-1.617522 -0.109077,-0.363755 -0.176159,-0.55317 -0.248232,-0.920478 -0.0853,-0.434702 -0.09784,-0.879877 -0.135223,-1.319964 -0.02421,-0.338772 -0.05237,-0.67783 -0.05006,-1.017762 0,0 -0.440804,0.224602 -0.440804,0.224602 z" />
        <path
           style="fill:#ffffff;fill-opacity:1;stroke:#faf8f8;stroke-width:2;stroke-miterlimit:4;stroke-dasharray:none;stroke-opacity:1;paint-order:markers fill stroke"
           id="path1386"
           d="m 85.000805,35.471946 c 0.517486,0.371227 1.038974,0.736743 1.564201,1.097029 0.766538,0.492088 1.518428,1.006657 2.263145,1.531067 0,0 0.379278,-0.242988 0.379278,-0.242988 v 0 c -0.774219,-0.483119 -1.535602,-0.987613 -2.275237,-1.522333 -0.517051,-0.359635 -1.04217,-0.710856 -1.52246,-1.119632 0,0 -0.408927,0.256857 -0.408927,0.256857 z" />
        <path
           style="fill:#ffffff;fill-opacity:1;stroke:#faf8f8;stroke-width:2;stroke-miterlimit:4;stroke-dasharray:none;stroke-opacity:1;paint-order:markers fill stroke"
           id="path1388"
           d="m 85.138378,32.738377 c 0.82781,0.415914 1.675352,0.790292 2.50847,1.195258 0.310231,0.150797 0.618484,0.305628 0.927729,0.458441 1.206077,0.616471 2.433857,1.188691 3.649726,1.785191 0.85671,0.420299 0.886817,0.440473 1.718069,0.867479 0.256908,0.130059 0.512903,0.261932 0.770721,0.390176 0.252725,0.125711 0.507384,0.247494 0.760862,0.371673 0.791919,0.387964 1.582362,0.778388 2.378991,1.156629 0.647194,0.31025 1.308446,0.590883 1.948492,0.915948 0,0 0.382512,-0.25213 0.382512,-0.25213 v 0 c -0.658644,-0.311184 -1.332991,-0.587004 -1.997957,-0.884237 -1.329325,-0.610153 -2.654739,-1.229119 -3.963771,-1.881952 -0.817332,-0.409676 -0.894209,-0.450681 -1.730928,-0.859719 -1.216924,-0.594908 -2.442575,-1.172059 -3.65134,-1.783577 -0.580305,-0.297106 -1.163669,-0.588288 -1.741477,-0.890225 -0.224832,-0.117486 -0.446584,-0.240779 -0.670292,-0.360395 -0.33418,-0.178686 -0.409448,-0.2102 -0.709637,-0.388209 -0.05705,-0.03383 -0.112164,-0.07081 -0.168248,-0.106217 0,0 -0.411922,0.265866 -0.411922,0.265866 z" />
        <path
           style="fill:#ffffff;fill-opacity:1;stroke:#faf8f8;stroke-width:2;stroke-miterlimit:4;stroke-dasharray:none;stroke-opacity:1;paint-order:markers fill stroke"
           id="path1392"
           d="m 96.027271,36.53332 c 0.08785,0.05992 0.175344,0.12039 0.263564,0.179779 0.133721,0.09002 0.269613,0.176837 0.402249,0.268451 0.541187,0.373806 0.724807,0.515615 1.268897,0.916848 0.263765,0.194511 0.529664,0.386167 0.791154,0.583723 0.274675,0.207518 0.54483,0.420952 0.817245,0.631428 1.02496,0.811755 2.03421,1.647307 2.96394,2.567835 0.0483,0.04611 0.25613,0.247253 0.3219,0.300061 0.10386,0.08339 0.2534,0.175657 0.36394,0.246348 0.29246,0.187031 0.1147,0.06924 0.39811,0.261475 0.17808,0.124793 0.34722,0.260802 0.50184,0.41358 0,0 0.4091,-0.252232 0.4091,-0.252232 v 0 c -0.16427,-0.149281 -0.34148,-0.282467 -0.52409,-0.408641 -0.37336,-0.252516 -0.76483,-0.481431 -1.09383,-0.793464 -0.99424,-0.870543 -2.03635,-1.684296 -3.072257,-2.504181 -0.733648,-0.577141 -0.851549,-0.672267 -1.578256,-1.234832 -0.21772,-0.168545 -0.437668,-0.334211 -0.654563,-0.503814 -0.188653,-0.147524 -0.373055,-0.300442 -0.562041,-0.44754 -0.124016,-0.09653 -0.252781,-0.186854 -0.376875,-0.283281 -0.08063,-0.06265 -0.158115,-0.129241 -0.237173,-0.193861 0,0 -0.402854,0.252318 -0.402854,0.252318 z" />
      </g>
      <path
         d="m 205.34258,-89.751209 c 0.38059,0.253063 0.77165,0.491039 1.1418,0.759144 0.67572,0.489389 1.32903,1.008969 1.99447,1.512249 3.86385,2.92223 7.68271,5.896315 11.47793,8.907075 2.65795,2.158332 1.40411,1.135984 3.76278,3.065471 0,0 2.08874,-1.315252 2.08874,-1.315252 v 0 c -2.47788,-1.851621 -1.16537,-0.866456 -3.93589,-2.957705 -2.91441,-2.203171 -5.82289,-4.416215 -8.65529,-6.724876 -5.47076,-4.459126 -0.31757,-0.303392 -4.52787,-3.887157 -0.34011,-0.2895 -0.70311,-0.550989 -1.05465,-0.826507 0,0 -2.29202,1.467558 -2.29202,1.467558 z"
         id="path1376"
         style="fill:#ffffff;fill-opacity:1;stroke:#faf8f8;stroke-width:11.3864;stroke-miterlimit:4;stroke-dasharray:none;stroke-opacity:1;paint-order:markers fill stroke" />
      <path
         d="m 182.72734,-50.690438 c 2.53097,1.370562 4.99252,2.864826 7.51557,4.249957 1.43771,0.789284 2.42473,1.288995 3.86334,2.032671 0.72819,0.284034 1.44826,0.589863 2.18456,0.852195 3.00883,1.072009 6.11409,1.890215 9.16738,2.819934 4.82024,1.46774 3.87946,1.190981 8.7759,2.830006 7.79502,2.611717 15.37968,5.784694 23.02129,8.801153 3.82574,1.51017 7.6661,2.983056 11.49342,4.489225 6.61272,2.595764 13.23553,5.168562 19.76227,7.975425 1.02053,0.332256 1.87473,1.005581 2.8371,1.451172 1.76141,0.819396 3.6236,1.397781 5.46006,2.021615 2.5389,0.886696 5.08536,1.750431 7.64315,2.580974 1.05826,0.345236 2.16405,0.535105 3.21582,0.8983436 0.44293,0.1629967 0.74547,0.4797672 1.05513,0.81791 0.0581,0.076346 0.11614,0.1528059 0.17421,0.2292088 0,0 2.40914,-1.4255924 2.40914,-1.4255924 v 0 c -0.0603,-0.08602 -0.12126,-0.171992 -0.18161,-0.258016 -0.33647,-0.381674 -0.65768,-0.740511 -1.14975,-0.925415 -1.06958,-0.370003 -2.2039,-0.53021 -3.2859,-0.862386 -2.61347,-0.756104 -5.22324,-1.530718 -7.77517,-2.478968 -1.7702,-0.637691 -3.58571,-1.228322 -5.22268,-2.171813 -0.24424,-0.07396 -0.46001,-0.186169 -0.69025,-0.297471 -0.77351,-0.373873 -1.56058,-0.718717 -2.37429,-0.997662 -6.80965,-2.48317 -13.61307,-4.982576 -20.38895,-7.557025 -5.82909,-2.21979 -11.64591,-4.468952 -17.44218,-6.77344 -4.00349,-1.591709 -7.97618,-3.260994 -11.99177,-4.821914 -1.62597,-0.632038 -3.27056,-1.215052 -4.90584,-1.822569 -7.56969,-2.614039 -1.36823,-0.497074 -8.65237,-2.919053 -1.21235,-0.403137 -2.418,-0.826314 -3.6325,-1.222932 -2.47203,-0.807303 -2.92043,-0.85668 -5.2956,-1.739191 -0.71879,-0.267069 -1.42261,-0.572829 -2.13391,-0.859243 -3.84556,-1.892823 -7.64222,-3.925477 -11.1398,-6.415667 0,0 -2.31605,1.498528 -2.31605,1.498528 z"
         id="path1380"
         style="fill:#ffffff;fill-opacity:1;stroke:#faf8f8;stroke-width:11.3864;stroke-miterlimit:4;stroke-dasharray:none;stroke-opacity:1;paint-order:markers fill stroke" />
      <path
         d="m 167.25574,-89.448757 c 4.2235,2.335191 8.66329,4.240289 13.03171,6.28064 1.57274,0.734579 3.14034,1.480139 4.71051,2.220195 4.33288,1.99283 8.67028,3.975731 13.00829,5.957357 2.98072,1.361618 4.04721,1.906743 7.11803,3.094046 1.42175,0.549737 2.86411,1.044591 4.29616,1.566881 1.49356,0.520132 2.98593,1.043771 4.48069,1.560442 1.46486,0.506354 2.92358,1.03132 4.39816,1.508616 1.72479,0.558277 3.46393,1.071287 5.19871,1.597704 5.06342,1.536502 10.15546,2.959533 15.25126,4.383679 4.07371,1.103396 8.10959,2.343743 12.17695,3.469195 1.16699,0.322919 2.34099,0.619917 3.51038,0.934063 3.28575,0.943548 6.55144,1.97234 9.75807,3.15999 1.86068,0.689147 3.24084,1.27704 5.0533,2.025697 1.47252,0.637373 2.96352,1.232496 4.41984,1.907 0.54541,0.252721 1.31496,0.622325 1.80372,0.944333 0.41333,0.272363 0.79575,0.589305 1.19359,0.883957 3.70401,3.303323 7.16611,6.866575 10.61905,10.427977 3.91102,3.944624 8.19898,7.494321 12.4607,11.049756 2.12801,1.633975 3.99726,3.617047 6.24438,5.096065 0.22773,0.117052 0.37461,0.228924 0.63508,0.238887 0.0991,0.0045 0.20723,0.0045 0.29434,-0.04327 1.23321,-0.665452 2.22149,-0.949571 2.97693,-1.921278 0,0 -2.58888,1.09197 -2.58888,1.09197 v 0 c -0.72327,0.723021 -1.87569,1.14523 1.82445,-0.893345 0.0769,-0.0427 -0.14233,0.109367 -0.22602,0.136466 -0.24766,0.08045 -0.36665,-0.01936 -0.60394,-0.107545 -0.75384,-0.398638 -1.43031,-0.874785 -2.11304,-1.388142 -1.49846,-1.126733 -2.93144,-2.33645 -4.418,-3.478594 -4.31267,-3.485016 -8.55554,-7.074087 -12.4562,-11.021472 -3.46899,-3.539273 -6.91794,-7.099991 -10.45958,-10.566783 -0.91325,-0.747075 -1.14098,-1.020674 -2.12619,-1.540658 -0.27783,-0.146544 -0.57405,-0.25517 -0.86469,-0.374102 -1.52783,-0.625217 -3.09367,-1.153126 -4.62215,-1.776727 -4.86031,-1.887796 -9.72168,-3.792296 -14.72333,-5.280098 -1.86329,-0.508518 -3.73643,-0.948803 -5.61294,-1.405524 -3.52372,-0.857626 -7.0419,-1.73918 -10.54631,-2.672879 -5.11921,-1.374404 -10.23754,-2.757486 -15.29659,-4.343365 -4.6852,-1.468684 -9.319,-3.101697 -13.94529,-4.743973 -1.40003,-0.541027 -2.80601,-1.066875 -4.20006,-1.623102 -6.86796,-2.740315 -13.5655,-5.893212 -20.31055,-8.916144 -2.36647,-1.13669 -6.69942,-3.196085 -9.0687,-4.418037 -1.1902,-0.613842 -2.35572,-1.274432 -3.5317,-1.915084 -1.51207,-0.823768 -3.01328,-1.658228 -4.4569,-2.598497 0,0 -2.29347,1.493661 -2.29347,1.493661 z"
         id="path1372"
         style="fill:#ffffff;fill-opacity:1;stroke:#faf8f8;stroke-width:11.3864;stroke-miterlimit:4;stroke-dasharray:none;stroke-opacity:1;paint-order:markers fill stroke" />
      <path
         d="m 305.85972,-64.090626 c -0.17421,1.124307 -0.31939,2.253619 -0.52321,3.372928 -1.31815,7.226432 -3.27645,14.33075 -5.17127,21.42186 -1.34918,5.551698 -2.95637,11.032585 -4.53066,16.522689 -0.50727,1.674499 -0.2562,0.90431 -0.74001,2.314855 0,0 2.41905,-1.141558 2.41905,-1.141558 v 0 c 0.38942,-1.380308 0.1856,-0.62746 0.60189,-2.261049 1.37195,-5.482224 2.8855,-10.928348 4.27692,-16.405721 1.95847,-8.321915 4.05038,-16.611669 5.9526,-24.946706 0,0 -2.28508,1.122702 -2.28508,1.122702 z"
         id="path1396"
         style="fill:#ffffff;fill-opacity:1;stroke:#faf8f8;stroke-width:11.3864;stroke-miterlimit:4;stroke-dasharray:none;stroke-opacity:1;paint-order:markers fill stroke" />
      <path
         d="m 170.50574,-108.21219 c 0.12036,0.0484 0.23986,0.0991 0.36129,0.14466 0.65464,0.24555 0.80494,0.27977 1.49721,0.54086 0.61102,0.23046 1.05088,0.41589 1.65016,0.66198 0,0 1.05909,-0.70907 1.05909,-0.70907 v 0 c -3.09467,-1.22708 1.63592,0.65073 -1.65443,-0.66263 -0.59219,-0.23638 -1.19458,-0.45415 -1.76143,-0.74911 0,0 -1.15191,0.77332 -1.15191,0.77332 z"
         id="path1428"
         style="fill:#ffffff;fill-opacity:1;stroke:#faf8f8;stroke-width:11.3864;stroke-miterlimit:4;stroke-dasharray:none;stroke-opacity:1;paint-order:markers fill stroke" />
      <path
         d="m 229.25553,-91.301768 c 3.1801,0.886143 6.35529,1.7894 9.49937,2.796712 0.85953,0.265759 1.70302,0.574138 2.53397,0.917433 0,0 1.08542,-0.729004 1.08542,-0.729004 v 0 c -0.87444,-0.315917 -1.76042,-0.594036 -2.6558,-0.845671 -1.6398,-0.479767 -3.28322,-0.948353 -4.92006,-1.438168 -0.78056,-0.233593 -2.47292,-0.750787 -3.29339,-1.028958 -0.38714,-0.131172 -0.76847,-0.279024 -1.15269,-0.418565 0,0 -1.09682,0.746238 -1.09682,0.746238 z"
         id="path1426"
         style="fill:#ffffff;fill-opacity:1;stroke:#faf8f8;stroke-width:11.3864;stroke-miterlimit:4;stroke-dasharray:none;stroke-opacity:1;paint-order:markers fill stroke" />
      <path
         d="m 255.46931,-81.80121 c 2.35601,1.034321 4.7635,1.947381 7.12784,2.962601 0.70038,0.300773 1.39464,0.615596 2.09195,0.923383 4.02656,1.778253 7.98964,3.697134 11.95676,5.603501 1.23133,0.583976 2.417,1.256521 3.61964,1.895852 0.22147,0.117792 1.82212,0.953158 1.98688,1.039188 2.02644,1.093234 4.09536,2.100694 6.18443,3.067595 0.83206,0.380079 1.6446,0.7959 2.41376,1.291119 0,0 1.14906,-0.742048 1.14906,-0.742048 v 0 c -0.81032,-0.471569 -1.65172,-0.881145 -2.51715,-1.242874 -0.54142,-0.239628 -1.33369,-0.587978 -1.86219,-0.832969 -1.47574,-0.684085 -2.91692,-1.438561 -4.35053,-2.206348 -0.34444,-0.18799 -0.69031,-0.373646 -1.03361,-0.563913 -0.70288,-0.38953 -0.95686,-0.554007 -1.64232,-0.905666 -0.98709,-0.506411 -1.99878,-0.965723 -3.00995,-1.421174 -1.32248,-0.590255 -2.04717,-0.909918 -3.39743,-1.529847 -2.88863,-1.326154 -5.74564,-2.720337 -8.6479,-4.016882 -2.57494,-1.151908 -1.55661,-0.701967 -4.09667,-1.816408 -1.62835,-0.714436 -3.27354,-1.402347 -4.83639,-2.254929 0,0 -1.13618,0.749819 -1.13618,0.749819 z"
         id="path1424"
         style="fill:#ffffff;fill-opacity:1;stroke:#faf8f8;stroke-width:11.3864;stroke-miterlimit:4;stroke-dasharray:none;stroke-opacity:1;paint-order:markers fill stroke" />
      <path
         d="m 301.14966,-15.059111 c 2.13353,0.558448 4.22317,1.271233 6.29875,2.013298 0.86725,0.359868 1.77646,0.668662 2.56485,1.190496 0.26929,0.174383 0.49702,0.402738 0.75863,0.586749 0.26587,0.210364 0.56533,0.367269 0.86793,0.517001 0,0 1.16631,-0.768573 1.16631,-0.768573 v 0 c -0.29719,-0.144778 -0.59745,-0.288532 -0.85364,-0.501686 -0.26758,-0.18076 -0.4993,-0.408773 -0.77052,-0.585223 -0.834,-0.511991 -1.79724,-0.775006 -2.69779,-1.13969 -2.07262,-0.69644 -4.15452,-1.364254 -6.22423,-2.069455 0,0 -1.11029,0.757112 -1.11029,0.757112 z"
         id="path1418"
         style="fill:#ffffff;fill-opacity:1;stroke:#faf8f8;stroke-width:11.3864;stroke-miterlimit:4;stroke-dasharray:none;stroke-opacity:1;paint-order:markers fill stroke" />
      <path
         d="m 207.76828,-53.190721 c 4.30201,1.101124 8.30709,3.062853 12.33885,4.876574 0.98443,0.445836 1.96895,0.891541 2.95329,1.337593 0.95475,0.432627 1.90553,0.874153 2.86398,1.298531 3.55878,1.575728 7.17197,3.027002 10.78485,4.472715 0.97045,0.394824 1.94294,0.784678 2.91134,1.18449 4.42562,1.827175 1.04479,0.474757 5.29407,2.190231 2.41803,0.976176 4.8488,1.920134 7.27675,2.871214 2.49355,0.985051 4.96541,2.045657 7.31488,3.343016 0.24515,0.135441 2.50375,1.457161 2.70202,1.573012 1.93831,1.221274 3.89698,2.44018 5.66587,3.904196 0.21714,0.179735 0.42266,0.373077 0.63401,0.559586 1.2345,1.318372 2.74987,2.310062 4.2482,3.298877 1.58047,0.978891 3.05234,2.120176 4.60619,3.137548 0.92527,0.497359 1.98045,0.622826 3.00443,0.77463 0,0 1.5563,-1.098096 1.5563,-1.098096 v 0 c -1.004,-0.131513 -2.02832,-0.26166 -2.94653,-0.717556 -1.61431,-0.947977 -3.12893,-2.058945 -4.70658,-3.065141 -0.59181,-0.403763 -1.33466,-0.897877 -1.90949,-1.337018 -0.62087,-0.474358 -1.18444,-1.000309 -1.75979,-1.525793 -0.16829,-0.15366 -0.34028,-0.30322 -0.51045,-0.454774 -2.01399,-1.648891 -4.22893,-3.035394 -6.42984,-4.417553 -0.93534,-0.558447 -1.75599,-1.064859 -2.71688,-1.57517 -2.39841,-1.273755 -4.92766,-2.291519 -7.45741,-3.268555 -8.76018,-3.440096 3.96423,1.548777 -4.79146,-1.85773 -2.63105,-1.02364 -5.24952,-2.076833 -7.86242,-3.145666 -0.96878,-0.396305 -1.93816,-0.791141 -2.90725,-1.1867 -0.95099,-0.401257 -1.89904,-0.809592 -2.85296,-1.203847 -7.42209,-3.067487 2.4868,1.081216 -5.16208,-2.090167 -2.52313,-1.046145 -3.13144,-1.3209 -5.64901,-2.460619 -0.98237,-0.444697 -1.96141,-0.896732 -2.94212,-1.345107 -0.95584,-0.438663 -1.91354,-0.873402 -2.86756,-1.316095 -2.33275,-1.082462 -4.65393,-2.201128 -7.05179,-3.136739 -0.66674,-0.26018 -1.36199,-0.442705 -2.02553,-0.712296 0,0 -1.60588,1.09242 -1.60588,1.09242 z"
         id="path1416"
         style="fill:#ffffff;fill-opacity:1;stroke:#faf8f8;stroke-width:11.3864;stroke-miterlimit:4;stroke-dasharray:none;stroke-opacity:1;paint-order:markers fill stroke" />
      <path
         d="m 178.98658,-64.757193 c 2.02677,0.543189 3.9609,1.355845 5.8674,2.220718 2.13868,0.92361 4.31366,1.758776 6.46864,2.642557 1.07664,0.417142 2.10137,0.953323 3.15884,1.412845 0.11671,0.04213 0.23211,0.08796 0.35019,0.126105 0.32827,0.105723 0.66184,0.194423 0.99031,0.299463 0.65432,0.209282 1.29735,0.445095 1.94089,0.68499 0.73812,0.263027 1.45687,0.570916 2.16662,0.901464 0.22158,0.116426 0.44111,0.235585 0.64296,0.383894 0,0 1.68075,-1.062309 1.68075,-1.062309 v 0 c -0.2111,-0.163224 -0.44384,-0.286255 -0.67968,-0.410538 -0.72865,-0.334362 -1.48133,-0.605889 -2.2368,-0.873447 -0.64314,-0.232682 -1.28214,-0.476864 -1.92774,-0.702674 -0.17325,-0.06058 -0.34763,-0.117963 -0.52145,-0.176888 -0.14569,-0.04498 -0.29257,-0.08602 -0.43695,-0.134986 -0.11375,-0.03871 -0.22477,-0.08511 -0.3371,-0.127585 -1.10321,-0.414295 -2.16741,-0.931154 -3.27508,-1.335543 -2.1632,-0.852689 -4.33009,-1.697756 -6.45564,-2.641999 -1.34381,-0.604203 -2.70519,-1.174857 -4.08793,-1.685037 -0.31961,-0.117964 -0.64502,-0.219474 -0.96549,-0.334989 -0.24703,-0.08904 -0.49127,-0.185713 -0.73687,-0.278569 0,0 -1.6059,1.092408 -1.6059,1.092408 z"
         id="path1414"
         style="fill:#ffffff;fill-opacity:1;stroke:#faf8f8;stroke-width:11.3864;stroke-miterlimit:4;stroke-dasharray:none;stroke-opacity:1;paint-order:markers fill stroke" />
      <rect
         transform="rotate(36.854146)"
         y="-222.0256"
         x="236.95235"
         height="2.4545114"
         width="0.13449383"
         id="rect1430"
         style="fill:#ffffff;fill-opacity:1;stroke:#faf8f8;stroke-width:11.3864;stroke-miterlimit:4;stroke-dasharray:none;stroke-opacity:1;paint-order:markers fill stroke" />
      <ellipse
         transform="rotate(15.940262)"
         cx="294.74988"
         cy="-132.24225"
         rx="2.9719226"
         ry="7.6200023"
         id="path1449"
         style="fill:#ffffff;fill-opacity:1;stroke:none;stroke-width:18.7878;stroke-miterlimit:4;stroke-dasharray:none;stroke-opacity:1;paint-order:markers fill stroke" />
      <rect
         transform="matrix(0.96016265,0.27944174,-0.45254791,0.89174009,0,0)"
         y="-105.79016"
         x="286.45715"
         height="13.733245"
         width="8.6618557"
         id="rect1451"
         style="fill:#ffffff;fill-opacity:1;stroke:none;stroke-width:14.9845;stroke-miterlimit:4;stroke-dasharray:none;stroke-opacity:1;paint-order:markers fill stroke" />
      <rect
         transform="rotate(26.942793)"
         y="-169.82562"
         x="89.94133"
         height="20.913778"
         width="7.4644084"
         id="rect1453"
         style="fill:#ffffff;fill-opacity:1;stroke:none;stroke-width:11.3864;stroke-miterlimit:4;stroke-dasharray:none;stroke-opacity:1;paint-order:markers fill stroke" />
      <rect
         inkscape:transform-center-y="-2.4450336"
         inkscape:transform-center-x="1.5473401"
         style="fill:#ffffff;fill-opacity:1;stroke:none;stroke-width:11.3864;stroke-miterlimit:4;stroke-dasharray:none;stroke-opacity:1;paint-order:markers fill stroke"
         id="rect1453-5"
         width="7.4644084"
         height="20.913778"
         x="115.38708"
         y="-153.4525"
         transform="rotate(26.942794)" />
      <rect
         transform="matrix(-0.41413321,0.91021629,-0.92735964,-0.37417122,0,0)"
         y="-122.97177"
         x="-122.48934"
         height="1.1936325"
         width="2.2402098"
         id="rect1453-5-3"
         style="fill:#ffffff;fill-opacity:1;stroke:none;stroke-width:1.49023;stroke-miterlimit:4;stroke-dasharray:none;stroke-opacity:1;paint-order:markers fill stroke"
         inkscape:transform-center-x="-0.38739454"
         inkscape:transform-center-y="-0.64787326" />
      <rect
         inkscape:transform-center-y="-0.74298601"
         inkscape:transform-center-x="-0.13337614"
         style="fill:#ffffff;fill-opacity:1;stroke:none;stroke-width:1.49023;stroke-miterlimit:4;stroke-dasharray:none;stroke-opacity:1;paint-order:markers fill stroke"
         id="rect1453-5-3-8"
         width="2.2402096"
         height="1.1936327"
         x="-68.009415"
         y="-159.5173"
         transform="matrix(-0.06565572,0.99784234,-0.99975323,-0.02221447,0,0)" />
      <path
         d="m 272.93405,-156.50442 -0.30475,0.37752 c -0.18526,0.20376 -3.12502,4.12843 -6.54268,8.74809 -3.40871,4.59571 -6.39924,8.5833 -6.60242,8.83498 -0.30476,0.37752 -0.54114,0.42574 -1.24767,0.27105 -3.6614,-0.79417 -8.43568,-1.23966 -13.97566,-1.316 l -3.58259,-0.0552 -5.13415,-9.86069 c -2.80866,-5.41636 -5.23892,-9.87251 -5.40055,-9.87828 -0.15269,-0.0296 -8.10454,2.40525 -17.67783,5.38113 l -17.41145,5.39872 0.10886,0.80494 c 0.0574,0.43092 0.83944,5.49983 1.70313,11.22708 l 1.5943,10.42214 -2.68493,1.99988 c -3.20819,2.3777 -7.12433,5.77393 -9.69466,8.41714 -1.01619,1.03991 -1.88894,1.91502 -1.92184,1.93002 -0.033,0.0148 -4.70995,-1.56792 -10.40208,-3.50264 -5.69213,-1.93472 -10.56082,-3.58922 -10.80932,-3.65473 l -0.47305,-0.12206 -8.41501,16.31967 c -0.17319,0.31751 -0.26866,0.50021 -0.40895,0.80265 l 3.4332,-6.41542 c 0.10447,-0.20667 0.37376,-0.26986 0.5804,-0.16539 0.13476,0.0776 0.24276,0.2271 0.22801,0.4127 l -0.30493,4.69029 2.0362,0.76045 4.86294,1.81612 0.40723,0.15207 2.64362,-3.78959 c 0.12844,-0.19772 0.38873,-0.23695 0.58647,-0.10851 0.12582,0.10157 0.20085,0.2661 0.17113,0.41879 l -1.10206,6.16687 7.13885,-12.7564 c 0.0955,-0.18269 0.31689,-0.26382 0.50852,-0.19226 0.2156,0.0805 0.32958,0.28688 0.27305,0.51142 l -5.65597,22.672891 7.06352,-13.139391 c 0.10447,-0.20666 0.37376,-0.26985 0.5804,-0.16538 0.13475,0.0777 0.24276,0.22715 0.22801,0.4127 l -0.30493,4.690289 6.89913,2.576567 -0.29525,0.790526 -7.18659,-2.683924 c -0.16767,-0.06262 -0.29064,-0.245036 -0.27595,-0.430578 l 0.20541,-3.03508 -7.7322,14.418259 c -0.10447,0.206664 -0.37376,0.269859 -0.5804,0.165388 -0.15873,-0.08659 -0.24879,-0.283978 -0.21014,-0.460638 l 5.70359,-22.873479 -6.81042,12.169353 c -0.10447,0.206663 -0.37376,0.269858 -0.5804,0.165387 -0.15873,-0.08659 -0.23377,-0.25107 -0.21908,-0.436669 l 1.212,-6.753631 -1.72354,2.49542 c -0.11051,0.14979 -0.29901,0.21589 -0.49064,0.14432 l -0.71863,-0.26821 -4.86293,-1.81612 -2.32367,-0.86781 c -0.16766,-0.0626 -0.29064,-0.24504 -0.27595,-0.43058 l 0.20541,-3.03508 -7.73219,14.418261 c -0.10447,0.206663 -0.37376,0.269858 -0.5804,0.165388 -0.0718,-0.02676 -0.12582,-0.101567 -0.15588,-0.167381 -1.64474,3.234549 -2.74921,5.387939 -2.72525,5.396883 0.71895,0.486884 18.25125,13.694875 18.25731,13.751733 0.0148,0.03302 -0.19881,1.263273 -0.43633,2.703178 -0.46314,2.775044 -0.74131,5.127845 -0.89016,7.93838 l 8.53708,-16.792718 c 0.10447,-0.206664 0.32582,-0.287735 0.54142,-0.207233 0.19164,0.07156 0.30567,0.277943 0.25802,0.478515 l -3.61188,15.957045 1.83437,-2.426722 c 0.11051,-0.149788 0.32298,-0.206948 0.49064,-0.144323 l 6.2763,2.343965 0.9103,0.339942 4.67128,1.744555 c 0.19164,0.07156 0.29064,0.245036 0.27596,0.430578 l -0.33414,3.014301 3.51172,-5.894766 c 0.12843,-0.197726 0.37376,-0.269859 0.57145,-0.14142 0.15872,0.08659 0.22482,0.27504 0.18617,0.4517 l -2.83385,13.654453 10.68629,-21.012614 c 0.10448,-0.206664 0.32583,-0.287735 0.54143,-0.207233 0.19163,0.07156 0.30567,0.277942 0.25802,0.478514 l -3.61189,15.957046 1.83438,-2.426722 c 0.1105,-0.149788 0.32297,-0.206948 0.49064,-0.144323 l 7.18659,2.68393 -0.29525,0.790525 -6.89913,-2.576572 -2.84421,3.741968 c -0.1524,0.188787 -0.4127,0.228013 -0.60147,0.07566 -0.12582,-0.101566 -0.20091,-0.2661 -0.1622,-0.442704 l 3.28752,-14.576879 -10.59077,20.829925 c -0.10447,0.206664 -0.35873,0.302765 -0.56539,0.198295 -0.15873,-0.08659 -0.24879,-0.283978 -0.21014,-0.460638 l 2.97062,-14.313079 -3.21012,5.379582 c -0.12844,0.197725 -0.37376,0.269858 -0.57146,0.141419 -0.13475,-0.07766 -0.20985,-0.242132 -0.20404,-0.403763 l 0.48762,-4.59476 -4.35986,-1.628254 -0.91031,-0.339942 -5.98882,-2.236602 -2.84421,3.741968 c -0.15235,0.188787 -0.4127,0.228013 -0.60147,0.07566 -0.12582,-0.101567 -0.20086,-0.266101 -0.1622,-0.442761 l 3.28752,-14.576879 -7.83261,15.418023 c -0.0262,0.508859 -0.0376,1.050563 -0.049,1.592295 l -0.0841,4.172221 -10.09101,5.23921 c -5.55692,2.892648 -10.12679,5.335032 -10.19548,5.445862 -0.0687,0.110847 2.39312,7.99082 5.4198,17.501181 5.34387,16.681228 5.55718,17.279523 6.09284,17.233908 0.30823,-0.02163 5.41614,-0.761513 11.30502,-1.619434 5.92179,-0.87293 10.84122,-1.546978 10.95205,-1.478289 0.11085,0.06866 0.96228,1.150974 1.91878,2.463568 2.8395,3.8719836 5.7142,7.2111794 8.53722,9.9578538 0.78217,0.75615005 1.53144,1.52731309 1.63938,1.67681122 0.13795,0.21531739 -0.71106,3.14650328 -3.20565,10.92243298 -1.88363,5.847683 -3.40652,10.656337 -3.41547,10.680294 v 0 c -0.009,0.02391 7.28389,3.81212 16.19097,8.394225 11.09943,5.728421 16.27467,8.316295 16.44812,8.217296 0.10766,-0.069 3.25662,-4.18847 6.9372,-9.146685 l 6.7219,-9.008722 3.55027,0.506981 c 4.43633,0.619536 6.68724,0.805055 11.33539,0.930477 l 3.66947,0.114775 5.23026,10.114952 c 2.8687,5.54797 5.27819,10.132847 5.36506,10.192586 0.0719,0.02676 7.95187,-2.434965 17.50408,-5.500602 l 17.36034,-5.554284 -1.6405,-11.39477 -1.64051,-11.3947646 3.274,-2.4077175 c 3.65665,-2.701533 6.75376,-5.36639591 9.23145,-7.9077218 1.47044,-1.525366 1.71861,-1.6783427 2.19166,-1.5562687 0.15258,0.029605 1.35943,0.453066 3.03022,1.0224843 l 2.82201,-13.5496917 -3.21012,5.379587 c -0.12867,0.197725 -0.37404,0.269858 -0.57148,0.141419 -0.13493,-0.07766 -0.21008,-0.242132 -0.20382,-0.403763 l 0.48791,-4.594766 -5.27016,-1.968212 0.29548,-0.790526 5.58157,2.084519 c 0.19187,0.07156 0.29093,0.245036 0.27613,0.430578 l -0.3342,3.014301 3.5117,-5.894766 c 0.12866,-0.197725 0.37404,-0.269858 0.57143,-0.141419 0.15884,0.08659 0.22488,0.275039 0.18616,0.451699 l -2.8338,13.6544533 10.68629,-21.0126143 c 0.10419,-0.206664 0.32566,-0.287735 0.54143,-0.207233 0.19186,0.07156 0.30572,0.277943 0.2579,0.478515 l -3.61189,15.9570449 1.83441,-2.4267219 c 0.11045,-0.149788 0.32281,-0.206948 0.49076,-0.144323 l 1.60497,0.599411 5.58164,2.0845189 c 0.19186,0.071564 0.29035,0.245036 0.27612,0.4305779 l -0.33419,3.0143011 3.50275,-5.8708089 c 0.12867,-0.197726 0.37404,-0.269859 0.57149,-0.14142 0.15884,0.08659 0.22488,0.27504 0.18616,0.4517 l -1.44522,6.9394995 4.35526,-8.4458615 8.44185,-16.39154 -9.0237,-6.754794 c -1.81255,-1.35933 -3.21468,-2.428897 -4.64971,-3.483457 l -5.68719,10.623494 c -0.10418,0.206663 -0.37347,0.269858 -0.55623,0.174326 -0.15884,-0.08659 -0.24879,-0.283978 -0.21008,-0.460638 l 3.19117,-12.784006 c -0.66212,-0.492918 -1.12652,-0.857444 -1.14149,-0.890345 -0.0171,-0.03302 0.26132,-1.649444 0.57279,-3.580286 0.0114,-0.02391 0.0171,-0.04782 0.003,-0.08079 l -3.71722,6.664221 c -0.10419,0.206664 -0.37405,0.269859 -0.58042,0.165388 -0.15885,-0.08659 -0.234,-0.25107 -0.21919,-0.436669 l 1.20303,-6.729671 -1.71463,2.471453 c -0.11045,0.149789 -0.29889,0.215887 -0.49075,0.144323 l -1.7008,-0.635197 v 0 l -7.18661,-2.683924 c -0.16738,-0.06262 -0.29092,-0.245036 -0.27612,-0.430635 l 0.21407,-3.059038 -7.77694,14.538034 c -0.10419,0.206664 -0.37348,0.269858 -0.58043,0.165388 -0.18275,-0.09553 -0.24879,-0.283978 -0.20097,-0.484607 l 5.76621,-23.041163 -6.84621,12.265171 c -0.10419,0.206664 -0.37404,0.269859 -0.58042,0.165388 -0.15885,-0.08659 -0.25791,-0.260066 -0.21919,-0.436669 l 1.22096,-6.777579 -1.72356,2.49541 c -0.11045,0.149789 -0.29889,0.215887 -0.49076,0.144323 l -5.58157,-2.084514 v 0 l -4.9588,-1.851928 c -0.16795,-0.06263 -0.29035,-0.245036 -0.27612,-0.430578 l 0.20552,-3.035082 -7.73219,14.418261 c -0.10475,0.206663 -0.37404,0.269858 -0.58036,0.165388 -0.15884,-0.08659 -0.2488,-0.283978 -0.21008,-0.460638 l 5.70358,-22.873471 -6.81046,12.169344 c -0.10475,0.206664 -0.37347,0.269859 -0.58037,0.165388 -0.15884,-0.08659 -0.23399,-0.251071 -0.21919,-0.43667 l 1.21198,-6.753621 -1.72351,2.49541 c -0.11045,0.149788 -0.2989,0.215887 -0.49076,0.144323 l -4.67129,-1.744555 -0.9103,-0.339942 -6.27629,-2.343965 c -0.16767,-0.06262 -0.29064,-0.245036 -0.27595,-0.430578 l 0.20541,-3.035081 -7.7322,14.41826 c -0.10447,0.206664 -0.37376,0.269859 -0.5804,0.165388 -0.15873,-0.08659 -0.24879,-0.283977 -0.21014,-0.460638 l 5.70358,-22.873475 -6.81041,12.169349 c -0.10447,0.206664 -0.37376,0.269858 -0.58041,0.165388 -0.15872,-0.08659 -0.23376,-0.251071 -0.21907,-0.43667 l 1.21201,-6.753627 -1.72355,2.49541 c -0.11056,0.149788 -0.299,0.215887 -0.49064,0.144323 l -5.58159,-2.08452 0.29525,-0.790525 5.27017,1.968218 2.64362,-3.789586 c 0.12844,-0.197725 0.38874,-0.236951 0.58647,-0.108513 0.12582,0.101567 0.20085,0.266101 0.17113,0.418793 l -1.10206,6.166868 7.13885,-12.7564 c 0.0955,-0.182695 0.31689,-0.263823 0.50852,-0.192202 0.21561,0.0805 0.32958,0.286881 0.27305,0.511421 l -5.65596,22.672887 7.07245,-13.163345 c 0.10447,-0.206664 0.37376,-0.269858 0.5804,-0.165388 0.13476,0.07766 0.24276,0.227159 0.22802,0.412701 l -0.30493,4.690293 5.98882,2.236608 0.91031,0.339942 4.35985,1.628248 2.64359,-3.789586 c 0.12867,-0.197726 0.38885,-0.236952 0.58646,-0.108513 0.12582,0.101567 0.20097,0.266101 0.17136,0.418793 l -1.10209,6.166867 7.1389,-12.756399 c 0.0956,-0.182695 0.31711,-0.263824 0.50841,-0.19226 0.21577,0.0805 0.32963,0.286881 0.27327,0.511422 l -5.65599,22.672881 7.07246,-13.163345 c 0.10419,-0.206664 0.37405,-0.269859 0.58043,-0.165388 0.13493,0.07766 0.24253,0.227159 0.22773,0.412701 l -0.30516,4.690287 4.67129,1.744555 v 0 l 5.27016,1.968212 2.66146,-3.837494 c 0.12867,-0.197725 0.38885,-0.236952 0.58652,-0.108513 0.12582,0.101567 0.20097,0.266101 0.17136,0.418793 l -1.11103,6.190825 7.17466,-12.852222 c 0.0956,-0.182696 0.31711,-0.263824 0.5084,-0.192203 0.21577,0.0805 0.32964,0.286881 0.27328,0.511421 l -5.70962,22.816618 7.10821,-13.259167 c 0.10419,-0.206664 0.37405,-0.269859 0.58043,-0.165388 0.13493,0.07766 0.24253,0.227159 0.22773,0.412701 l -0.3137,4.714244 6.8991,2.576572 v 0 l 1.38943,0.51888 2.64359,-3.789586 c 0.12867,-0.197725 0.38885,-0.236952 0.58646,-0.108513 0.12582,0.101567 0.20097,0.266101 0.17137,0.418793 l -1.11707,6.133967 3.55297,-6.370696 c 0.43838,-3.439437 0.66679,-7.121017 0.63291,-10.027078 l -0.0569,-2.478052 10.06123,-5.086529 c 5.52117,-2.796826 10.06419,-5.167344 10.07604,-5.27211 0.0512,-0.499865 -10.82145,-34.831807 -11.07599,-34.954167 -0.15885,-0.0866 -5.21295,0.50983 -11.2456,1.31408 -6.02365,0.78028 -11.02993,1.39459 -11.14971,1.34986 -0.0871,-0.0597 -1.10028,-1.36627 -2.24262,-2.91207 -2.38375,-3.26503 -4.97679,-6.33525 -7.74005,-9.1688 l -1.95112,-2.0116 3.32028,-10.27911 c 1.81204,-5.65604 3.36783,-10.4797 3.4423,-10.75216 l 0.12183,-0.47305 -16.29571,-8.40605 z m -39.39597,66.384825 c 4.19218,1.565629 7.66576,5.128488 8.35423,9.643851 1.2574,6.93885 -3.20034,14.855101 -10.30948,16.349165 -2.58511,0.563173 -5.30012,0.2316 -7.74068,-0.76174 -5.17723,-1.851616 -8.71639,-7.431604 -8.08331,-12.92743 0.43189,-5.980403 4.73066,-11.936087 10.8767,-12.970937 2.31295,-0.419134 4.69865,-0.155994 6.90254,0.667091 z M 200.7678,-101.92134 c 1.67687,0.62625 3.35086,1.33331 4.95616,2.151205 2.76181,1.741139 3.98794,5.47463 2.74698,8.505122 -0.78093,2.383402 -3.07104,4.203181 -5.36292,4.712075 2.78841,3.716417 0.36044,9.852154 -4.2236,10.651447 -2.18424,0.439915 -4.39101,-0.302366 -6.39431,-1.077805 -3.09629,-1.210947 -6.21944,-2.350022 -9.33363,-3.513061 l 9.1701,-24.554173 c 2.75804,1.16651 5.63845,2.07846 8.44122,3.12519 z m 13.2294,4.995285 4.40777,1.646142 -9.16115,24.530212 -4.40777,-1.646141 0.0716,-0.191634 0.0716,-0.191634 z m 18.04394,10.887807 c -2.89253,-1.025662 -6.37552,-0.47026 -8.44339,1.923845 -2.9588,3.098652 -4.25079,8.239209 -1.95303,12.099949 0.99577,1.572927 2.58954,2.71407 4.36511,3.29529 3.63226,1.383815 7.93951,-0.501515 9.70373,-3.909838 2.1143,-3.468631 2.43972,-8.50613 -0.64104,-11.512837 -0.85115,-0.863803 -1.90548,-1.475926 -3.03138,-1.896409 z M 201.0196,-97.186907 c -0.23957,-0.08944 -0.46412,-0.146031 -0.68864,-0.202564 l -5.15039,-1.923504 -2.3887,6.396059 c 2.20388,0.823074 4.41672,1.622191 6.60272,2.493167 2.09912,0.811243 4.57799,-0.856151 4.6498,-3.09494 0.21902,-1.828962 -1.41084,-3.092765 -3.02479,-3.668218 z m 123.28701,55.6515 -2.29221,9.134439 4.1437,-7.733264 c -0.67709,-0.525826 -1.33922,-1.018773 -1.85149,-1.401175 z m -127.61279,-45.31117 c -0.3593,-0.134189 -0.70365,-0.235471 -1.02402,-0.327815 l -4.40778,-1.646142 -2.20082,5.893001 c 2.13203,0.796236 4.29695,1.577459 6.41108,2.421598 2.06622,0.82625 4.33844,-0.945615 4.29365,-3.091467 -0.0262,-1.756801 -1.56292,-2.685524 -3.07211,-3.249146 z m 73.26184,43.274423 c 0.16767,0.06262 0.33539,0.12525 0.50306,0.187876 3.78785,1.332725 6.70147,4.713771 7.55676,8.636316 0.45034,1.205533 -1.68115,0.62778 -2.37498,1.023777 -0.9995,0.118077 -2.30052,0.751328 -2.23362,-0.670393 -1.13697,-4.191521 -6.15317,-6.474335 -10.11091,-5.086278 -5.84268,1.83055 -8.43856,9.950806 -4.54126,14.791063 2.58435,3.312654 7.90384,4.125543 11.14434,1.295873 1.01018,1.168868 2.02931,2.313773 3.0395,3.482636 -0.65485,0.437865 -1.30971,0.875696 -2.01854,1.238792 -5.16469,3.011836 -12.0869,1.081762 -15.80409,-3.363676 -4.08259,-4.636492 -3.78118,-11.948561 -0.25904,-16.774876 3.22283,-4.828905 9.75386,-6.675351 15.09878,-4.76111 z m 31.0885,11.992569 c -4.88387,2.625369 -9.79171,5.2418 -14.67558,7.867169 2.11167,5.674695 4.19937,11.34044 6.31105,17.0151349 l -5.62952,-2.1024074 c -1.56814,-4.3525655 -3.11237,-8.6961805 -4.65654,-13.0397965 -0.77206,0.09382 -1.39342,0.953625 -2.19519,1.200124 -1.03492,2.697998 -2.03083,5.437846 -3.07468,8.159806 l -4.4078,-1.646142 9.16112,-24.530218 4.40781,1.646142 -3.9454,10.564284 c 4.22585,-2.325195 8.4517,-4.650395 12.68649,-6.999546 1.77184,0.0068 3.39851,1.132728 5.10511,1.606295 0.29661,0.08341 0.61674,0.175749 0.91313,0.259155 z m -88.46089,-32.982297 4.40778,1.646142 -3.69488,9.893538 11.92974,4.455316 c 1.23461,-3.305828 2.46922,-6.611655 3.69488,-9.893532 l 4.40779,1.646142 -9.16116,24.530218 -4.43173,-1.655091 c 1.31512,-3.521424 2.63025,-7.042854 3.94537,-10.564284 l -11.92974,-4.455317 -3.94538,10.564279 -4.40778,-1.646142 9.01801,-24.146929 0.0716,-0.191633 0.0716,-0.191634 z m 31.74079,11.854014 4.59942,1.717717 c 0.23115,9.394413 0.45335,18.812784 0.70844,28.216142 l -4.93479,-1.842962 c -0.0268,-1.975284 -0.0861,-3.935554 -0.11273,-5.910832 l -10.42056,-3.8917 c -1.31488,1.474281 -2.64479,2.915661 -3.95968,4.389941 l -4.93479,-1.842962 c 6.28182,-6.880176 12.58759,-13.751402 18.86941,-20.631573 l 0.0507,-0.06291 z m 73.10679,30.387193 -10.25048,20.138102 c 1.28753,0.426251 2.61399,0.8943471 4.2369,1.44584882 4.23689,1.44584317 8.71336,2.98115518 9.953,3.38951238 l 2.23072,0.7512084 2.65976,-5.1483857 1.55226,-7.4454441 -3.21013,5.3795814 c -0.12866,0.1977254 -0.37404,0.2698584 -0.57148,0.1414195 -0.13493,-0.077656 -0.21008,-0.2421325 -0.20382,-0.4037628 l 0.48791,-4.594766 -5.27016,-1.9682129 -1.31752,-0.492064 -2.84422,3.7419732 c -0.15258,0.1887301 -0.41276,0.2280133 -0.60149,0.075606 -0.12582,-0.1015669 -0.20097,-0.2661008 -0.16226,-0.4427044 z m -72.99607,-23.740103 c -2.43555,2.720844 -4.8711,5.441683 -7.30666,8.162522 l 7.52197,2.809174 z"
         class="st0"
         id="path3351-5-6"
         style="fill:#800000;fill-opacity:1;stroke-width:0.255714" />
      <text
         transform="scale(1.0333332,0.96774206)"
         id="text388"
         y="29.496758"
         x="60.22393"
         style="font-style:normal;font-weight:normal;font-size:2.53284px;line-height:1.25;font-family:sans-serif;letter-spacing:0px;word-spacing:0px;fill:#ffffff;fill-opacity:1;stroke:none;stroke-width:0.0633212"
         xml:space="preserve"><tspan
           id="tspan390"
           style="fill:#ffffff;stroke-width:0.0633212"
           y="29.496758"
           x="60.22393"
           sodipodi:role="line">2020</tspan></text>
      <text
         id="text12"
         y="17.597397"
         x="36.640896"
         style="font-style:normal;font-weight:normal;font-size:1.40398px;line-height:1.25;font-family:sans-serif;letter-spacing:0px;word-spacing:0px;fill:#000000;fill-opacity:1;stroke:none;stroke-width:0.0350995"
         xml:space="preserve" />
    </g>
  </g>
</svg>
