<?xml version="1.0" encoding="UTF-8" standalone="no"?>
<svg
   xmlns:dc="http://purl.org/dc/elements/1.1/"
   xmlns:cc="http://creativecommons.org/ns#"
   xmlns:rdf="http://www.w3.org/1999/02/22-rdf-syntax-ns#"
   xmlns:svg="http://www.w3.org/2000/svg"
   xmlns="http://www.w3.org/2000/svg"
   xmlns:sodipodi="http://sodipodi.sourceforge.net/DTD/sodipodi-0.dtd"
   xmlns:inkscape="http://www.inkscape.org/namespaces/inkscape"
   sodipodi:docname="make + bio cogs clear.svg"
   inkscape:version="1.0 (4035a4fb49, 2020-05-01)"
   id="svg8"
   version="1.1"
   viewBox="0 0 442.42407 350.81827">
  <defs
     id="defs2" />
  <sodipodi:namedview
     fit-margin-bottom="0"
     fit-margin-right="0"
     fit-margin-left="0"
     fit-margin-top="0"
     inkscape:snap-global="false"
     inkscape:document-rotation="0"
     showguides="false"
     inkscape:window-maximized="1"
     inkscape:window-y="-9"
     inkscape:window-x="-9"
     inkscape:window-height="1001"
     inkscape:window-width="1920"
     showgrid="false"
     inkscape:current-layer="layer1"
     inkscape:document-units="mm"
     inkscape:cy="266.23748"
     inkscape:cx="-269.84698"
     inkscape:zoom="0.25449098"
     inkscape:pageshadow="2"
     inkscape:pageopacity="0.0"
     borderopacity="1.0"
     bordercolor="#666666"
     pagecolor="#ffffff"
     id="base" />
  <metadata
     id="metadata5">
    <rdf:RDF>
      <cc:Work
         rdf:about="">
        <dc:format>image/svg+xml</dc:format>
        <dc:type
           rdf:resource="http://purl.org/dc/dcmitype/StillImage" />
        <dc:title></dc:title>
      </cc:Work>
    </rdf:RDF>
  </metadata>
  <g
     transform="translate(33.053026,-5.7389889)"
     id="layer1"
     inkscape:groupmode="layer"
     inkscape:label="Layer 1">
    <text
       id="text12"
       y="137.64668"
       x="-104.60614"
       style="font-style:normal;font-weight:normal;font-size:10.5833px;line-height:1.25;font-family:sans-serif;letter-spacing:0px;word-spacing:0px;fill:#000000;fill-opacity:1;stroke:none;stroke-width:0.264583"
       xml:space="preserve" />
    <path
       id="path3351-5"
       style="fill:none;fill-opacity:1;stroke:#000000;stroke-width:6.61417;stroke-miterlimit:4;stroke-dasharray:none;stroke-opacity:1"
       d="m 497.05273,0 -0.86328,2.4042969 c -0.47356,1.3223467 -7.67467,25.9102061 -16.0039,54.6406251 -8.32923,28.730423 -15.58456,53.555928 -16.1211,55.166018 -0.77798,2.33384 -1.91697,3.06269 -5.61328,3.60156 -19.28285,2.80821 -43.46898,9.34278 -70.625,19.08008 L 370.26562,141.18945 327.25,102.41992 C 303.59201,81.096834 283.62935,63.810281 282.89453,64.003906 c -0.73716,0.19409 -35.15352,26.535232 -76.48242,58.535154 l -75.14063,58.18164 2.01172,3.71875 c 1.10808,2.04551 14.09083,25.34496 28.85157,51.77735 l 26.83789,48.05859 -9.50391,14.72852 c -11.26854,17.46269 -24.22083,41.23179 -32.0625,58.83984 -3.11078,6.9837 -5.76427,12.8061 -5.89258,12.94141 -0.13063,0.13425 -25.85803,0.97253 -57.16992,1.86132 -31.310721,0.88868 -58.069858,1.72766 -59.464844,1.86524 l -2.537109,0.25 -11.304688,95.01172 C 4.8201534,522.03032 -0.14776619,564.8195 0.00390625,564.85352 4.3662513,565.94644 114.1919,598.47352 114.30859,598.70898 c 0.0979,0.18826 1.3422,6.49815 2.76758,14.02149 3.82102,20.16559 8.02519,35.37589 16.13281,58.375 l 7.24414,20.54883 -39.6914,44.03125 c -21.830198,24.21743 -39.715366,44.56401 -39.832032,45.21484 -0.07808,0.65084 26.20954,34.6486 58.416012,75.54883 56.49088,71.74031 58.6519,74.32053 61.2168,73.13281 1.46149,-0.67733 25.01005,-13.54126 52.32812,-28.58594 27.31933,-15.04463 50.18845,-27.28867 50.80665,-27.21875 0.62402,0.0742 6.85747,3.8946 13.85351,8.49024 20.87381,13.71061 41.10404,24.86141 59.92383,33.02734 5.24529,2.27532 10.21488,4.61999 11.05469,5.21485 1.1104,0.78882 2.26504,16.69464 4.30273,59.24218 1.53265,31.99045 2.82031,58.29455 2.82031,58.44725 h -0.004 c 0.0198,0.1526 42.5248,5.3373 94.45508,11.5156 64.73255,7.7014 94.6883,10.8965 95.27148,10.1641 0.46658,-0.5877 8.21847,-26.3641 17.22656,-57.2813 l 16.38086,-56.21288 18.26758,-4.0625 c 22.74939,-5.05867 34.1446,-8.27633 57.11328,-16.12305 l 18.08789,-6.17969 43.95313,39.84961 c 24.17355,21.91669 44.31841,39.89687 44.75,39.94336 0.43854,0.0523 34.41921,-26.38116 75.51367,-58.74023 l 74.7168,-58.83399 -28.81055,-52.70117 -28.8125,-52.70117 11.53906,-17.78516 c 12.91899,-19.91376 23.19931,-38.51803 30.62695,-55.41796 4.44745,-10.11871 5.29452,-11.36509 7.86524,-11.57032 1.58513,-0.1262 21.99805,-0.7699 45.36328,-1.42773 23.36523,-0.65809 48.01965,-1.38021 54.78715,-1.60547 l 12.3066,-0.41016 11.3613,-95.49609 11.3614,-95.49805 -56.4317,-16.52539 c -31.03644,-9.08867 -56.45742,-16.65867 -56.5742,-16.82422 -0.077,-0.16554 -1.76754,-8.51718 -3.75391,-18.55859 -4.13605,-20.90109 -11.05187,-45.04664 -17.91601,-62.54102 l -4.73438,-12.05859 39.83594,-43.17187 c 21.90841,-23.74421 39.7257,-43.61898 39.58594,-44.16602 -0.63455,-2.55732 -116.37561,-150.442 -117.83008,-150.54687 -0.91098,-0.0691 -24.56081,12.03348 -52.55664,26.89453 -27.99583,14.86116 -51.37772,26.96449 -51.96094,26.89453 -0.58201,-0.0693 -7.91122,-4.63122 -16.28711,-10.13672 -17.66154,-11.60891 -35.896,-21.83217 -54.58984,-30.60742 l -13.21875,-6.20508 -2.56836,-56.207032 C 688.559,52.953267 687.27265,26.516591 687.12109,25.119141 l -0.28125,-2.539063 -94.89257,-11.291016 z m 375.35352,250.83203 8.12109,36.57031 -96.54492,21.44336 9.09766,40.95899 94.49804,-20.99024 8.1211,36.57032 -94.4961,20.98828 9.87696,44.4707 96.54492,-21.44336 8.12305,36.57031 -138.08985,30.66992 -43.34179,-195.13867 z m -162.58203,36.10938 -57.19141,108.79297 105.79883,85.17773 -51.19922,11.37109 -76.51172,-65.28125 -11.11914,21.81055 13.32032,59.97461 -41.54297,9.22851 -43.3418,-195.13867 41.54297,-9.22851 19.29883,86.89062 49.74609,-102.22461 z m -254.9961,56.63671 118.53126,178.43946 -47.10352,10.46094 -19.63086,-30.33008 -83.67188,18.58398 -4.94531,35.78906 -47.10156,10.4629 31.8457,-211.83985 z m -145.54101,32.32618 43.3418,195.13867 -41.83594,9.29297 -31.25586,-140.72266 -23.74609,152.9375 -18.13868,4.0293 -86.25781,-128.50586 31.25586,140.72266 -41.54297,9.22656 -43.341795,-195.13867 58.218755,-12.93165 74.49218,111.47266 20.29883,-132.52539 z m 128.73047,15.00195 -11.77735,90.72266 60.85352,-13.51563 z m 437.16797,84.79492 c 48.42021,-0.52355 88.67018,30.6422 99.89453,81.17774 13.06102,58.80495 -20.58763,110.48584 -79.39258,123.54687 -59.09752,13.12604 -111.46046,-19.45091 -124.52148,-78.25586 -13.06107,-58.80499 20.58802,-110.48724 79.68554,-123.61328 8.26945,-1.83671 16.41068,-2.7698 24.33399,-2.85547 z m -136.71485,25.05469 -23.39648,222.24023 -26.91406,5.97852 23.39453,-222.24219 z m 133.7168,13.05859 c -4.25875,0.0819 -8.65029,0.6064 -13.14844,1.60547 -36.27768,8.05758 -53.2827,40.69147 -45.16015,77.26172 8.05753,36.27768 37.34341,58.9384 73.62109,50.88086 35.98511,-7.9926 52.92476,-40.91958 44.86719,-77.19727 -7.10723,-31.99897 -30.36841,-53.12394 -60.17969,-52.55078 z m -247.81445,18.42188 43.34179,195.13867 -41.54296,9.22852 -43.3418,-195.13868 z m -79.71289,17.70508 43.34179,195.13867 -41.83789,9.29297 -18.25781,-82.21094 -92.1582,20.46875 18.25976,82.21094 -41.54297,9.22656 -43.34179,-195.13867 41.54297,-9.22657 17.02539,76.6504 92.15625,-20.46875 -17.02539,-76.65039 z m -283.16797,62.0664 c 48.42021,-0.52356 88.6702,30.64028 99.89453,81.17578 13.06104,58.80495 -20.58958,110.48777 -79.39453,123.54883 -59.09753,13.126 -111.46044,-19.45091 -124.52149,-78.25586 -13.06104,-58.80499 20.58802,-110.48728 79.68555,-123.61328 8.26945,-1.83671 16.41263,-2.76979 24.33594,-2.85547 z m -2.99805,38.11328 c -4.25875,0.0819 -8.65225,0.6064 -13.15039,1.60547 -36.27769,8.05758 -53.28074,40.69147 -45.1582,77.26172 8.05756,36.27768 37.34145,58.93844 73.61914,50.88086 35.98513,-7.99257 52.9247,-40.91962 44.86719,-77.19726 -7.10723,-31.99898 -30.36647,-53.12394 -60.17774,-52.55079 z"
       transform="matrix(0.26458333,0,0,0.26458333,-32.177954,6.6901312)" />
    <g
       style="fill:none;fill-opacity:1;stroke:#000000;stroke-width:6.84358;stroke-miterlimit:4;stroke-dasharray:none;stroke-opacity:1"
       id="layer1-7"
       transform="matrix(0.23955323,0.08946436,-0.08946436,0.23955323,464.70956,364.18296)"
       inkscape:label="Layer 1">
      <path
         style="fill:none;fill-opacity:1;stroke:#000000;stroke-width:6.84358;stroke-miterlimit:4;stroke-dasharray:none;stroke-opacity:1"
         id="path3351-5-6"
         class="st0"
         d="m -749.8,-584.5 -0.6,1.8 c -0.4,1 -5.8,19.4 -12,41 -6.2,21.5 -11.7,40.2 -12.1,41.4 -0.6,1.8 -1.4,2.3 -4.2,2.7 -14.5,2.1 -32.6,7 -53,14.3 l -13.2,4.7 -32.3,-29.1 c -17.7,-16 -32.7,-29 -33.3,-28.8 -0.6,0.1 -26.4,19.9 -57.4,43.9 l -56.4,43.6 1.5,2.8 c 0.8,1.5 10.6,19 21.6,38.8 l 20.1,36 -7.1,11 c -8.5,13.1 -18.2,30.9 -24,44.1 -2.3,5.2 -4.3,9.6 -4.4,9.7 -0.1,0.1 -19.4,0.7 -42.9,1.4 -23.5,0.7 -43.6,1.3 -44.6,1.4 l -1.9,0.2 -8.5,71.3 c -0.2,1.4 -0.3,2.2 -0.4,3.5 l 3.8,-28.2 c 0.1,-0.9 1,-1.5 1.9,-1.4 0.6,0.1 1.2,0.5 1.4,1.2 l 5.3,17.6 h 8.5 20.3 1.7 l 4.5,-17.5 c 0.2,-0.9 1.1,-1.4 2,-1.2 0.6,0.2 1.1,0.7 1.2,1.3 l 4.4,24.1 8.7,-56.5 c 0.1,-0.8 0.8,-1.4 1.6,-1.4 0.9,0 1.6,0.6 1.7,1.5 l 10.3,90.8 7.9,-57.8 c 0.1,-0.9 1,-1.5 1.9,-1.4 0.6,0.1 1.2,0.5 1.4,1.2 l 5.3,17.6 h 28.8 v 3.3 h -30 c -0.7,0 -1.4,-0.5 -1.6,-1.2 l -3.4,-11.4 -8.6,63.4 c -0.1,0.9 -1,1.5 -1.9,1.4 -0.7,-0.1 -1.3,-0.7 -1.4,-1.4 l -10.4,-91.6 -8.3,53.9 c -0.1,0.9 -1,1.5 -1.9,1.4 -0.7,-0.1 -1.2,-0.6 -1.4,-1.3 l -4.8,-26.4 -2.9,11.5 c -0.2,0.7 -0.8,1.2 -1.6,1.2 h -3 -20.3 -9.7 c -0.7,0 -1.4,-0.5 -1.6,-1.2 l -3.4,-11.4 -8.6,63.4 c -0.1,0.9 -1,1.5 -1.9,1.4 -0.3,0 -0.6,-0.2 -0.8,-0.4 -1.6,14.1 -2.7,23.5 -2.6,23.5 3.3,0.8 85.6,25.2 85.7,25.4 0.1,0.1 1,4.9 2.1,10.5 2.1,10.8 4.3,19.8 7.6,30.3 l 8.3,-73.2 c 0.1,-0.9 0.8,-1.5 1.7,-1.5 0.8,0 1.5,0.6 1.6,1.4 l 8.6,63.4 3.4,-11.4 c 0.2,-0.7 0.9,-1.2 1.6,-1.2 h 26.2 3.8 19.5 c 0.8,0 1.4,0.5 1.6,1.2 l 2.9,11.5 4.8,-26.4 c 0.2,-0.9 1,-1.5 1.9,-1.3 0.7,0.1 1.2,0.7 1.3,1.4 l 8.3,53.9 10.4,-91.6 c 0.1,-0.9 0.8,-1.5 1.7,-1.5 0.8,0 1.5,0.6 1.6,1.4 l 8.6,63.4 3.4,-11.4 c 0.2,-0.7 0.9,-1.2 1.6,-1.2 h 30 v 3.3 H -903 l -5.3,17.6 c -0.3,0.9 -1.2,1.4 -2.1,1.1 -0.6,-0.2 -1.1,-0.7 -1.2,-1.4 l -7.9,-57.9 -10.3,90.8 c -0.1,0.9 -0.9,1.6 -1.8,1.5 -0.7,-0.1 -1.3,-0.7 -1.4,-1.4 l -8.7,-56.5 -4.4,24.1 c -0.2,0.9 -1,1.5 -1.9,1.3 -0.6,-0.1 -1.1,-0.6 -1.3,-1.2 l -4.5,-17.5 h -18.2 -3.8 -25 l -5.3,17.6 c -0.3,0.9 -1.2,1.4 -2.1,1.1 -0.6,-0.2 -1.1,-0.7 -1.2,-1.4 l -7.9,-57.9 -7.6,67.2 c 0.6,1.9 1.3,3.9 2,5.9 l 5.4,15.4 -29.8,33 c -16.4,18.2 -29.8,33.4 -29.9,33.9 -0.1,0.5 19.7,26 43.8,56.7 42.4,53.8 44,55.7 45.9,54.8 1.1,-0.5 18.8,-10.2 39.2,-21.4 20.5,-11.3 37.6,-20.5 38.1,-20.4 0.5,0.1 5.1,2.9 10.4,6.4 15.7,10.3 30.8,18.6 44.9,24.8 3.9,1.7 7.7,3.5 8.3,3.9 0.8,0.6 1.7,12.5 3.2,44.4 1.1,24 2.1,43.7 2.1,43.8 v 0 c 0,0.1 31.9,4 70.8,8.6 48.5,5.8 71,8.2 71.5,7.6 0.3,-0.4 6.2,-19.8 12.9,-43 l 12.3,-42.2 13.7,-3 c 17.1,-3.8 25.6,-6.2 42.8,-12.1 l 13.6,-4.6 33,29.9 c 18.1,16.4 33.2,29.9 33.6,30 0.3,0 25.8,-19.8 56.6,-44.1 l 56,-44.1 -21.6,-39.5 -21.6,-39.5 8.7,-13.3 c 9.7,-14.9 17.4,-28.9 23,-41.6 3.3,-7.6 4,-8.5 5.9,-8.7 0.6,-0.1 5.6,-0.2 12.5,-0.4 l -8.2,-53.5 -4.4,24.1 c -0.2,0.9 -1,1.5 -1.9,1.3 -0.6,-0.1 -1.1,-0.6 -1.3,-1.2 l -4.5,-17.5 h -22 v -3.3 h 23.3 c 0.8,0 1.4,0.5 1.6,1.2 l 2.9,11.5 4.8,-26.4 c 0.2,-0.9 1,-1.5 1.9,-1.3 0.7,0.1 1.2,0.7 1.3,1.4 l 8.3,53.9 10.4,-91.6 c 0.1,-0.9 0.8,-1.5 1.7,-1.5 0.8,0 1.5,0.6 1.6,1.4 l 8.6,63.4 3.4,-11.4 c 0.2,-0.7 0.9,-1.2 1.6,-1.2 h 6.7 23.3 c 0.8,0 1.4,0.5 1.6,1.2 l 2.9,11.5 4.8,-26.3 c 0.2,-0.9 1,-1.5 1.9,-1.3 0.7,0.1 1.2,0.7 1.3,1.4 l 4.2,27.4 4.4,-36.9 8.5,-71.6 -42.3,-12.4 c -8.5,-2.5 -15.1,-4.5 -21.8,-6.4 l -6.3,46.7 c -0.1,0.9 -1,1.5 -1.8,1.4 -0.7,-0.1 -1.3,-0.7 -1.4,-1.4 l -5.8,-51.2 c -3.1,-0.9 -5.3,-1.6 -5.4,-1.7 -0.1,-0.1 -1.3,-6.4 -2.8,-13.9 0,-0.1 0,-0.2 -0.1,-0.3 l -4.5,29.5 c -0.1,0.9 -1,1.5 -1.9,1.4 -0.7,-0.1 -1.2,-0.6 -1.4,-1.3 l -4.8,-26.3 -2.9,11.4 c -0.2,0.7 -0.8,1.2 -1.6,1.2 h -7.1 v 0 h -30 c -0.7,0 -1.4,-0.5 -1.6,-1.2 l -3.4,-11.5 -8.6,63.9 c -0.1,0.9 -1,1.5 -1.9,1.4 -0.8,-0.1 -1.3,-0.7 -1.4,-1.5 l -10.4,-92.3 -8.3,54.3 c -0.1,0.9 -1,1.5 -1.9,1.4 -0.7,-0.1 -1.3,-0.6 -1.4,-1.3 l -4.8,-26.5 -2.9,11.5 c -0.2,0.7 -0.8,1.2 -1.6,1.2 h -23.3 v 0 H -563 c -0.7,0 -1.4,-0.5 -1.6,-1.2 l -3.4,-11.4 -8.6,63.4 c -0.1,0.9 -1,1.5 -1.9,1.4 -0.7,-0.1 -1.3,-0.7 -1.4,-1.4 l -10.4,-91.6 -8.3,53.9 c -0.1,0.9 -1,1.5 -1.9,1.4 -0.7,-0.1 -1.2,-0.6 -1.4,-1.3 l -4.8,-26.4 -2.9,11.5 c -0.2,0.7 -0.8,1.2 -1.6,1.2 h -19.5 -3.8 -26.2 c -0.7,0 -1.4,-0.5 -1.6,-1.2 l -3.4,-11.4 -8.6,63.4 c -0.1,0.9 -1,1.5 -1.9,1.4 -0.7,-0.1 -1.3,-0.7 -1.4,-1.4 l -10.4,-91.6 -8.3,53.9 c -0.1,0.9 -1,1.5 -1.9,1.4 -0.7,-0.1 -1.2,-0.6 -1.4,-1.3 l -4.8,-26.4 -2.9,11.5 c -0.2,0.7 -0.8,1.2 -1.6,1.2 h -23.3 v -3.3 h 22 l 4.5,-17.5 c 0.2,-0.9 1.1,-1.4 2,-1.2 0.6,0.2 1.1,0.7 1.2,1.3 l 4.4,24.1 8.7,-56.5 c 0.1,-0.8 0.8,-1.4 1.6,-1.4 0.9,0 1.6,0.6 1.7,1.5 l 10.3,90.8 7.9,-57.9 c 0.1,-0.9 1,-1.5 1.9,-1.4 0.6,0.1 1.2,0.5 1.4,1.2 l 5.3,17.6 h 25 3.8 18.2 l 4.5,-17.5 c 0.2,-0.9 1.1,-1.4 2,-1.2 0.6,0.2 1.1,0.7 1.2,1.3 l 4.4,24.1 8.7,-56.5 c 0.1,-0.8 0.8,-1.4 1.6,-1.4 0.9,0 1.6,0.6 1.7,1.5 l 10.3,90.8 7.9,-57.9 c 0.1,-0.9 1,-1.5 1.9,-1.4 0.6,0.1 1.2,0.5 1.4,1.2 l 5.3,17.6 h 19.5 v 0 h 22 l 4.5,-17.7 c 0.2,-0.9 1.1,-1.4 2,-1.2 0.6,0.2 1.1,0.7 1.2,1.3 l 4.4,24.2 8.7,-56.9 c 0.1,-0.8 0.8,-1.4 1.6,-1.4 0.9,0 1.6,0.6 1.7,1.5 l 10.3,91.4 7.9,-58.3 c 0.1,-0.9 1,-1.5 1.9,-1.4 0.6,0.1 1.2,0.5 1.4,1.2 l 5.3,17.7 h 28.8 v 0 h 5.8 l 4.5,-17.5 c 0.2,-0.9 1.1,-1.4 2,-1.2 0.6,0.2 1.1,0.7 1.2,1.3 l 4.3,24 4.3,-28.2 c -3.1,-13.2 -7.3,-27 -11.4,-37.6 l -3.6,-9 29.9,-32.4 c 16.4,-17.8 29.8,-32.7 29.7,-33.1 -0.5,-1.9 -87.3,-112.8 -88.4,-112.9 -0.7,-0.1 -18.4,9 -39.4,20.2 -21,11.1 -38.5,20.2 -39,20.2 -0.4,-0.1 -5.9,-3.5 -12.2,-7.6 -13.2,-8.7 -26.9,-16.4 -40.9,-23 l -9.9,-4.7 -1.9,-42.2 c -1.1,-23.2 -2,-43 -2.1,-44.1 l -0.2,-1.9 -71.2,-8.5 z m -53.5,297.1 c 17.5,0 35.1,8.3 43.8,23.9 14.1,23.7 8.6,58.8 -15.4,74 -8.7,5.6 -19.1,8.1 -29.4,7.8 -21.5,0.3 -42.1,-15.3 -47.3,-36.3 -6.6,-22.5 1,-50.2 22.1,-62.4 7.9,-4.7 17,-7 26.2,-7 z m -136.2,1.6 c 7,0 14.1,0.3 21.1,1.1 12.5,2.6 22.1,14.6 21.7,27.4 0.4,9.8 -5.5,19.6 -13.2,24.6 15.3,9.8 14.8,35.6 -0.9,44.8 -7.4,4.6 -16.5,4.9 -24.9,4.8 -13,-0.2 -26,-0.1 -39,-0.1 v -102.5 c 11.7,0.5 23.5,-0.1 35.2,-0.1 z m 55.3,0.2 h 18.4 v 102.4 h -18.4 v -0.8 -0.8 z m 81,15.2 c -12,0.2 -24,7 -28.3,18.6 -6.6,15.4 -4.3,36 9.4,47 5.8,4.4 13.2,6.4 20.5,6.1 15.2,0.1 28.4,-12.7 30.2,-27.6 3,-15.6 -2.7,-34.5 -18.1,-41.3 -4.3,-2 -9,-2.8 -13.7,-2.8 z m -128.9,1.6 c -1,0 -1.9,0.1 -2.8,0.2 h -21.5 v 26.7 c 9.2,0 18.4,-0.1 27.6,0.1 8.8,0.1 15.6,-9.4 12.8,-17.7 -1.7,-7 -9.4,-9.4 -16.1,-9.3 z m 527.8,35.2 4.1,36.6 4.6,-34 c -3.2,-1 -6.3,-1.9 -8.7,-2.6 z m -529.5,8.6 c -1.5,0 -2.9,0.1 -4.2,0.2 h -18.4 v 24.6 c 8.9,0 17.9,-0.1 26.8,0.1 8.7,0.2 14.6,-9.4 11.5,-17.2 -2.5,-6.4 -9.4,-7.7 -15.7,-7.7 z m 327.6,58.3 c 0.7,0 1.4,0 2.1,0 15.7,-0.3 31,8.1 39.5,21.3 3.3,3.8 -5.3,4.6 -7.3,7 -3.5,1.8 -7.4,5.9 -9.1,0.6 -9.9,-13.8 -31.4,-15.3 -44,-4.8 -18.9,14.7 -17.3,48 3.6,60.4 14,8.6 34.6,4.3 42.6,-10.5 5.3,2.9 10.6,5.7 15.9,8.6 -1.8,2.5 -3.6,5 -5.7,7.3 -14.8,18.1 -42.8,20.5 -62.5,9.3 -21.3,-11.4 -30.2,-38.6 -23.9,-61.1 5.2,-22.1 26.6,-37.8 48.8,-38.1 z m 130.3,1.4 c -14.3,16.3 -28.7,32.6 -43,48.9 15.5,17.9 30.9,35.8 46.4,53.7 H -496 c -11.7,-13.8 -23.3,-27.6 -34.9,-41.4 -2.7,1.4 -3.8,5.4 -6.4,7.4 -0.1,11.3 0,22.7 -0.1,34.1 h -18.4 V -165 h 18.4 v 44.1 c 12.3,-14.3 24.6,-28.6 36.9,-43 6.5,-2.4 14,-0.5 20.9,-1.1 1.2,-0.1 2.5,-0.2 3.7,-0.3 z m -369.2,0.2 h 18.4 v 41.3 h 49.8 c 0,-13.8 0,-27.6 0,-41.3 h 18.4 V -62.7 H -777 c 0,-14.7 0,-29.4 0,-44.1 h -49.8 v 44.1 h -18.4 v -100.8 -0.8 -0.8 z m 132.5,0 h 19.2 c 13.7,34.1 27.4,68.3 41.2,102.4 h -20.6 c -2.8,-7.2 -5.7,-14.3 -8.5,-21.5 h -43.5 c -2.8,7.2 -5.7,14.3 -8.5,21.5 h -20.6 c 13.6,-33.8 27.3,-67.6 40.9,-101.4 l 0.1,-0.3 z m 309.4,11.3 -10,87.8 c 5.3,-0.2 10.8,-0.3 17.5,-0.5 17.5,-0.5 36,-1 41.1,-1.2 l 9.2,-0.3 2.7,-22.5 -4.5,-29.4 -4.4,24.1 c -0.2,0.9 -1,1.5 -1.9,1.3 -0.6,-0.1 -1.1,-0.6 -1.3,-1.2 l -4.5,-17.5 h -22 -5.5 l -5.3,17.6 c -0.3,0.9 -1.2,1.4 -2.1,1.1 -0.6,-0.2 -1.1,-0.7 -1.2,-1.4 z m -299.9,12.9 c -5.2,13.3 -10.4,26.6 -15.6,39.9 h 31.4 z" />
      <g
         style="fill:none;fill-opacity:1;stroke:#000000;stroke-width:6.84358;stroke-miterlimit:4;stroke-dasharray:none;stroke-opacity:1"
         id="text3353-8-2-4"
         transform="rotate(-12.522562)" />
      <g
         style="fill:none;fill-opacity:1;stroke:#000000;stroke-width:6.84358;stroke-miterlimit:4;stroke-dasharray:none;stroke-opacity:1"
         id="text3353-8-2-1-8"
         transform="rotate(-12.522562)" />
      <g
         style="fill:none;fill-opacity:1;stroke:#000000;stroke-width:6.84358;stroke-miterlimit:4;stroke-dasharray:none;stroke-opacity:1"
         id="text871"
         transform="matrix(1,0,0,-1,31.874999,0)" />
      <g
         style="fill:none;fill-opacity:1;stroke:#000000;stroke-width:6.84358;stroke-miterlimit:4;stroke-dasharray:none;stroke-opacity:1"
         id="text879"
         transform="translate(-11.57227,10.667967)" />
    </g>
  </g>
  <style
     type="text/css"
     id="style886">
	.st0{fill:#FFFFFF;}
</style>
</svg>
